<svg viewBox="0 0 330 200" xmlns="http://www.w3.org/2000/svg"><g><g><g><g><g><line x1="53.1875" y1="176" x2="48.1875" y2="176" style="visibility: inherit;" fill="rgb(0, 0, 0)" stroke="rgb(204, 204, 204)" stroke-width="1px"></line><line x1="53.1875" y1="163.42857142857144" x2="48.1875" y2="163.42857142857144" style="visibility: inherit;" fill="rgb(0, 0, 0)" stroke="rgb(204, 204, 204)" stroke-width="1px"></line><line x1="53.1875" y1="150.85714285714286" x2="48.1875" y2="150.85714285714286" style="visibility: inherit;" fill="rgb(0, 0, 0)" stroke="rgb(204, 204, 204)" stroke-width="1px"></line><line x1="53.1875" y1="138.28571428571428" x2="48.1875" y2="138.28571428571428" style="visibility: inherit;" fill="rgb(0, 0, 0)" stroke="rgb(204, 204, 204)" stroke-width="1px"></line><line x1="53.1875" y1="125.71428571428572" x2="48.1875" y2="125.71428571428572" style="visibility: inherit;" fill="rgb(0, 0, 0)" stroke="rgb(204, 204, 204)" stroke-width="1px"></line><line x1="53.1875" y1="113.14285714285715" x2="48.1875" y2="113.14285714285715" style="visibility: inherit;" fill="rgb(0, 0, 0)" stroke="rgb(204, 204, 204)" stroke-width="1px"></line><line x1="53.1875" y1="100.57142857142858" x2="48.1875" y2="100.57142857142858" style="visibility: inherit;" fill="rgb(0, 0, 0)" stroke="rgb(204, 204, 204)" stroke-width="1px"></line><line x1="53.1875" y1="88" x2="48.1875" y2="88" style="visibility: inherit;" fill="rgb(0, 0, 0)" stroke="rgb(204, 204, 204)" stroke-width="1px"></line><line x1="53.1875" y1="75.42857142857146" x2="48.1875" y2="75.42857142857146" style="visibility: inherit;" fill="rgb(0, 0, 0)" stroke="rgb(204, 204, 204)" stroke-width="1px"></line><line x1="53.1875" y1="62.85714285714287" x2="48.1875" y2="62.85714285714287" style="visibility: inherit;" fill="rgb(0, 0, 0)" stroke="rgb(204, 204, 204)" stroke-width="1px"></line><line x1="53.1875" y1="50.285714285714306" x2="48.1875" y2="50.285714285714306" style="visibility: inherit;" fill="rgb(0, 0, 0)" stroke="rgb(204, 204, 204)" stroke-width="1px"></line><line x1="53.1875" y1="37.714285714285715" x2="48.1875" y2="37.714285714285715" style="visibility: inherit;" fill="rgb(0, 0, 0)" stroke="rgb(204, 204, 204)" stroke-width="1px"></line><line x1="53.1875" y1="25.14285714285713" x2="48.1875" y2="25.14285714285713" style="visibility: inherit;" fill="rgb(0, 0, 0)" stroke="rgb(204, 204, 204)" stroke-width="1px"></line><line x1="53.1875" y1="12.571428571428585" x2="48.1875" y2="12.571428571428585" style="visibility: inherit;" fill="rgb(0, 0, 0)" stroke="rgb(204, 204, 204)" stroke-width="1px"></line><line x1="53.1875" y1="0" x2="48.1875" y2="0" style="visibility: inherit;" fill="rgb(0, 0, 0)" stroke="rgb(204, 204, 204)" stroke-width="1px"></line></g><g transform="translate(43.1875, 0)"><text x="0" y="176" dx="0em" dy="0.3em" style="text-anchor: end; visibility: hidden; font-family: Roboto, sans-serif; font-size: 12px; font-weight: 200;" fill="rgb(33, 33, 33)" stroke="none" stroke-width="1px">-0.2</text><text x="0" y="163.42857142857144" dx="0em" dy="0.3em" style="text-anchor: end; visibility: inherit; font-family: Roboto, sans-serif; font-size: 12px; font-weight: 200;" fill="rgb(33, 33, 33)" stroke="none" stroke-width="1px">0</text><text x="0" y="150.85714285714286" dx="0em" dy="0.3em" style="text-anchor: end; visibility: hidden; font-family: Roboto, sans-serif; font-size: 12px; font-weight: 200;" fill="rgb(33, 33, 33)" stroke="none" stroke-width="1px">0.2</text><text x="0" y="138.28571428571428" dx="0em" dy="0.3em" style="text-anchor: end; visibility: inherit; font-family: Roboto, sans-serif; font-size: 12px; font-weight: 200;" fill="rgb(33, 33, 33)" stroke="none" stroke-width="1px">0.4</text><text x="0" y="125.71428571428572" dx="0em" dy="0.3em" style="text-anchor: end; visibility: hidden; font-family: Roboto, sans-serif; font-size: 12px; font-weight: 200;" fill="rgb(33, 33, 33)" stroke="none" stroke-width="1px">0.6</text><text x="0" y="113.14285714285715" dx="0em" dy="0.3em" style="text-anchor: end; visibility: inherit; font-family: Roboto, sans-serif; font-size: 12px; font-weight: 200;" fill="rgb(33, 33, 33)" stroke="none" stroke-width="1px">0.8</text><text x="0" y="100.57142857142858" dx="0em" dy="0.3em" style="text-anchor: end; visibility: hidden; font-family: Roboto, sans-serif; font-size: 12px; font-weight: 200;" fill="rgb(33, 33, 33)" stroke="none" stroke-width="1px">1</text><text x="0" y="88" dx="0em" dy="0.3em" style="text-anchor: end; visibility: inherit; font-family: Roboto, sans-serif; font-size: 12px; font-weight: 200;" fill="rgb(33, 33, 33)" stroke="none" stroke-width="1px">1.2</text><text x="0" y="75.42857142857146" dx="0em" dy="0.3em" style="text-anchor: end; visibility: hidden; font-family: Roboto, sans-serif; font-size: 12px; font-weight: 200;" fill="rgb(33, 33, 33)" stroke="none" stroke-width="1px">1.4</text><text x="0" y="62.85714285714287" dx="0em" dy="0.3em" style="text-anchor: end; visibility: inherit; font-family: Roboto, sans-serif; font-size: 12px; font-weight: 200;" fill="rgb(33, 33, 33)" stroke="none" stroke-width="1px">1.6</text><text x="0" y="50.285714285714306" dx="0em" dy="0.3em" style="text-anchor: end; visibility: hidden; font-family: Roboto, sans-serif; font-size: 12px; font-weight: 200;" fill="rgb(33, 33, 33)" stroke="none" stroke-width="1px">1.8</text><text x="0" y="37.714285714285715" dx="0em" dy="0.3em" style="text-anchor: end; visibility: inherit; font-family: Roboto, sans-serif; font-size: 12px; font-weight: 200;" fill="rgb(33, 33, 33)" stroke="none" stroke-width="1px">2</text><text x="0" y="25.14285714285713" dx="0em" dy="0.3em" style="text-anchor: end; visibility: hidden; font-family: Roboto, sans-serif; font-size: 12px; font-weight: 200;" fill="rgb(33, 33, 33)" stroke="none" stroke-width="1px">2.2</text><text x="0" y="12.571428571428585" dx="0em" dy="0.3em" style="text-anchor: end; visibility: inherit; font-family: Roboto, sans-serif; font-size: 12px; font-weight: 200;" fill="rgb(33, 33, 33)" stroke="none" stroke-width="1px">2.4</text><text x="0" y="0" dx="0em" dy="0.3em" style="text-anchor: end; visibility: hidden; font-family: Roboto, sans-serif; font-size: 12px; font-weight: 200;" fill="rgb(33, 33, 33)" stroke="none" stroke-width="1px">2.6</text></g><line x1="53.1875" y1="0" x2="53.1875" y2="176" fill="rgb(0, 0, 0)" stroke="rgb(204, 204, 204)" stroke-width="1px"></line></g></g><g transform="translate(53, 0)" clip-path="url(#clip_0)"><clipPath id="clip_0"><rect width="276" height="176"></rect></clipPath><g><g><g><line x1="0" y1="0" x2="0" y2="176" fill="rgb(0, 0, 0)" stroke="rgb(66, 66, 66)" stroke-width="1px" opacity="0.25"></line><line x1="23.067708333333332" y1="0" x2="23.067708333333332" y2="176" fill="rgb(0, 0, 0)" stroke="rgb(66, 66, 66)" stroke-width="1px" opacity="0.25"></line><line x1="46.135416666666664" y1="0" x2="46.135416666666664" y2="176" fill="rgb(0, 0, 0)" stroke="rgb(66, 66, 66)" stroke-width="1px" opacity="0.25"></line><line x1="69.203125" y1="0" x2="69.203125" y2="176" fill="rgb(0, 0, 0)" stroke="rgb(66, 66, 66)" stroke-width="1px" opacity="0.25"></line><line x1="92.27083333333333" y1="0" x2="92.27083333333333" y2="176" fill="rgb(0, 0, 0)" stroke="rgb(66, 66, 66)" stroke-width="1px" opacity="0.25"></line><line x1="115.33854166666667" y1="0" x2="115.33854166666667" y2="176" fill="rgb(0, 0, 0)" stroke="rgb(66, 66, 66)" stroke-width="1px" opacity="0.25"></line><line x1="138.40625" y1="0" x2="138.40625" y2="176" fill="rgb(0, 0, 0)" stroke="rgb(66, 66, 66)" stroke-width="1px" opacity="0.25"></line><line x1="161.47395833333334" y1="0" x2="161.47395833333334" y2="176" fill="rgb(0, 0, 0)" stroke="rgb(66, 66, 66)" stroke-width="1px" opacity="0.25"></line><line x1="184.54166666666666" y1="0" x2="184.54166666666666" y2="176" fill="rgb(0, 0, 0)" stroke="rgb(66, 66, 66)" stroke-width="1px" opacity="0.25"></line><line x1="207.609375" y1="0" x2="207.609375" y2="176" fill="rgb(0, 0, 0)" stroke="rgb(66, 66, 66)" stroke-width="1px" opacity="0.25"></line><line x1="230.67708333333334" y1="0" x2="230.67708333333334" y2="176" fill="rgb(0, 0, 0)" stroke="rgb(66, 66, 66)" stroke-width="1px" opacity="0.25"></line><line x1="253.74479166666666" y1="0" x2="253.74479166666666" y2="176" fill="rgb(0, 0, 0)" stroke="rgb(66, 66, 66)" stroke-width="1px" opacity="0.25"></line><line x1="276.8125" y1="0" x2="276.8125" y2="176" fill="rgb(0, 0, 0)" stroke="rgb(66, 66, 66)" stroke-width="1px" opacity="0.25"></line></g><g><line x1="0" y1="176" x2="276.8125" y2="176" fill="rgb(0, 0, 0)" stroke="rgb(66, 66, 66)" stroke-width="1px" opacity="0.25"></line><line x1="0" y1="163.42857142857144" x2="276.8125" y2="163.42857142857144" fill="rgb(0, 0, 0)" stroke="rgb(66, 66, 66)" stroke-width="1px" opacity="0.25"></line><line x1="0" y1="150.85714285714286" x2="276.8125" y2="150.85714285714286" fill="rgb(0, 0, 0)" stroke="rgb(66, 66, 66)" stroke-width="1px" opacity="0.25"></line><line x1="0" y1="138.28571428571428" x2="276.8125" y2="138.28571428571428" fill="rgb(0, 0, 0)" stroke="rgb(66, 66, 66)" stroke-width="1px" opacity="0.25"></line><line x1="0" y1="125.71428571428572" x2="276.8125" y2="125.71428571428572" fill="rgb(0, 0, 0)" stroke="rgb(66, 66, 66)" stroke-width="1px" opacity="0.25"></line><line x1="0" y1="113.14285714285715" x2="276.8125" y2="113.14285714285715" fill="rgb(0, 0, 0)" stroke="rgb(66, 66, 66)" stroke-width="1px" opacity="0.25"></line><line x1="0" y1="100.57142857142858" x2="276.8125" y2="100.57142857142858" fill="rgb(0, 0, 0)" stroke="rgb(66, 66, 66)" stroke-width="1px" opacity="0.25"></line><line x1="0" y1="88" x2="276.8125" y2="88" fill="rgb(0, 0, 0)" stroke="rgb(66, 66, 66)" stroke-width="1px" opacity="0.25"></line><line x1="0" y1="75.42857142857146" x2="276.8125" y2="75.42857142857146" fill="rgb(0, 0, 0)" stroke="rgb(66, 66, 66)" stroke-width="1px" opacity="0.25"></line><line x1="0" y1="62.85714285714287" x2="276.8125" y2="62.85714285714287" fill="rgb(0, 0, 0)" stroke="rgb(66, 66, 66)" stroke-width="1px" opacity="0.25"></line><line x1="0" y1="50.285714285714306" x2="276.8125" y2="50.285714285714306" fill="rgb(0, 0, 0)" stroke="rgb(66, 66, 66)" stroke-width="1px" opacity="0.25"></line><line x1="0" y1="37.714285714285715" x2="276.8125" y2="37.714285714285715" fill="rgb(0, 0, 0)" stroke="rgb(66, 66, 66)" stroke-width="1px" opacity="0.25"></line><line x1="0" y1="25.14285714285713" x2="276.8125" y2="25.14285714285713" fill="rgb(0, 0, 0)" stroke="rgb(66, 66, 66)" stroke-width="1px" opacity="0.25"></line><line x1="0" y1="12.571428571428585" x2="276.8125" y2="12.571428571428585" fill="rgb(0, 0, 0)" stroke="rgb(66, 66, 66)" stroke-width="1px" opacity="0.25"></line><line x1="0" y1="0" x2="276.8125" y2="0" fill="rgb(0, 0, 0)" stroke="rgb(66, 66, 66)" stroke-width="1px" opacity="0.25"></line></g></g></g><g><g><line x1="0" y1="163.42857142857144" x2="276.8125" y2="163.42857142857144" fill="rgb(0, 0, 0)" stroke="rgb(153, 153, 153)" stroke-width="1.5px"></line></g></g><g><g><line x1="23.067708333333332" y1="0" x2="23.067708333333332" y2="176" fill="rgb(0, 0, 0)" stroke="rgb(153, 153, 153)" stroke-width="1.5px"></line></g></g><g><g><g><g><g><path stroke="rgb(255, 112, 67)" stroke-width="2px" d="M33.794192708333334,-1.5606955235019697L34.02486979166667,0.9713905111914833L34.46315625,2.5431840613957064L34.947578125,5.885496610539944L35.45506770833333,7.153060064359103L36.07789583333333,8.306988786235234L36.30857291666666,7.515383541541709L36.446979166666665,10.459930836877229L36.608453125000004,10.921699229759534L36.63152083333333,10.83498855372507L37.392755208333334,12.671525032707288L37.438890625,12.744690641332149L37.715703125000005,15.643212439151906L37.877177083333336,15.64844533807318L37.900244791666665,16.130433671031042L37.94638020833333,18.451674487547848L38.01558333333333,18.126747991733183L38.061718750000004,18.54690221911782L38.33853125,17.783312535077798L38.569208333333336,18.760493611488084L39.56111979166666,19.40396004628927L39.74566145833334,21.993285342614854L39.930203125,23.096038344241965L40.137812499999995,23.774366911749304L40.43769270833334,25.761694492230298L40.52996354166667,27.73368491694854L40.737572916666664,27.334864270481567L40.829843749999995,27.175508863802584L40.87597916666667,26.004088320862458L40.92211458333334,26.7347905082122L41.083588541666664,26.151535075888525L41.19892708333334,25.611141774816023L41.245062499999996,27.47436165267561L41.36040104166667,29.23516434616733L41.406536458333335,27.993806933767644L41.498807291666665,28.654258839390067L41.591078124999996,30.25723371375543L41.729484375,29.454776193655068L41.752552083333335,29.62749610472538L42.283109375,30.783880409940423L42.37538020833333,31.149744575484313L43.13661458333333,32.813751600201286L43.29808854166667,32.15469982573881L43.43649479166667,32.05709471059396L44.0131875,33.80263767265243L44.05932291666667,35.76748833261279L44.243864583333334,34.92430481946166L44.566812500000005,35.889552875459096L44.82055729166666,36.66498641190353L44.88976041666666,37.944653609924615L45.097369791666665,39.10372252266167L45.28191145833333,38.62142268334451L45.48952083333333,40.82365780268597L45.512588541666666,40.39412421870354L45.65099479166666,39.76783973507954L45.674062500000005,39.165089380511304L45.789401041666665,40.52759922592817L46.204619791666666,40.54367620207824L46.27382291666667,40.65954236065126L46.481432291666664,41.53124929421581L47.473343750000005,42.04323154064083L47.611749999999994,43.77468089172196L47.680953124999995,44.039453604700455L47.72708854166667,45.18264509372848L47.819359375,46.496944986011805L47.95776562499999,46.5043784631647L48.07310416666667,44.95042708749006L48.30378125,45.59594393341969L48.442187499999996,45.23948943613651L48.55752604166667,46.725214232709384L48.788203124999995,46.448828861368085L49.757046875,48.03448973015092L49.84931770833334,48.19204339079006L49.87238541666667,47.88893181668315L49.895453124999996,47.31226850075907L50.310671875,47.264282290989755L50.61055208333333,48.04128350990007L50.910432291666666,50.142056134120836L51.78700520833333,49.93906450845799L52.04075,50.61536550866367L52.109953125,51.618068846998575L52.17915625,52.81315774496672L52.64051041666667,53.6158248794368L52.77891666666667,55.59670663464101L52.940390625,54.916973260569776L53.078796875,55.60047834197942L53.44788020833333,55.28367039098217L53.51708333333333,55.02389627842998L53.770828125,56.02047011089519L53.84003125,55.64435217195356L53.909234375000004,55.517701957817785L53.93230208333333,55.9642095514171L55.039552083333334,57.26021398507041L55.108755208333335,58.965133583390184L55.177958333333336,58.16924477056983L55.201026041666665,58.283257132814846L55.708515625000004,58.42711462994352L55.985328125,58.10800746248411L56.216005208333335,58.6014475329976L56.308276041666666,59.26762849032731L56.88496875,59.276008525558005L56.908036458333335,58.92679013469166L57.16178125,59.570513690887545L57.346322916666665,62.120525312223656L57.48472916666667,61.56780376286086L58.22289583333334,61.09978641421065L58.31516666666667,62.8429671810808L58.891859374999996,64.07917780882289L59.26094270833333,64.78711005487031L59.28401041666667,65.15004787365531L59.63002604166667,64.34171285854028L59.722296875,64.67803660663854L60.091380208333334,65.35093752097252L60.11444791666667,65.51219956266723L60.6219375,65.68836625074906L60.852614583333335,66.54359160626696L60.92181770833333,66.3063502544619L61.03715625,66.86730401210446L61.106359375000004,67.6353801075452L61.383171875,68.15648272281744L61.56771354166667,67.60530936592053L61.890661458333334,69.41500419473019L62.09827083333333,69.14243191878079L62.19054166666666,69.97088041373708L62.23667708333333,70.05902704279792L62.2828125,70.40130367685065L62.352015625,68.94287146130708L62.51348958333333,70.3051394351862L62.721098958333336,69.52868209991962L63.044046875,69.9204472839822L63.090182291666665,70.95769962736478L63.159385416666666,70.89213441395724L63.27472395833333,69.84507379369033L63.343927083333334,69.83245108642976L63.36699479166666,69.90622015921696L63.828348958333336,70.61342803146069L64.03595833333334,71.25247061979718L64.17436458333333,70.76576100172623L64.33583854166666,72.44790891296027L64.35890625,73.21591506038777L64.56651562500001,72.59468014192811L64.72798958333334,72.84768959630016L65.21241145833334,72.53980817219137L65.30468229166667,72.54805504317252L65.535359375,74.21468229740533L65.62763020833333,73.94488053453627L65.83523958333333,74.53983514183645L66.13511979166667,74.19985454143557L66.20432291666667,73.93245610341882L66.34272916666667,74.37883973565971L66.38886458333333,73.93139728404022L67.17316666666667,74.31762677897603L67.31157291666666,75.63600088297227L67.70372395833334,76.21638975141073L67.93440104166667,76.01235054832134L68.00360416666666,77.17865683037044L68.04973958333333,76.6271346107432L68.46495833333333,76.56484490349601L68.78790625,77.37545348576391L68.83404166666666,77.50447904859423L69.24926041666666,78.33906874193558L69.34153125,78.46134927608L69.52607291666666,78.93257117540665L69.91822395833333,78.70718146213224L70.05663020833333,79.54222433050897L70.61025520833333,80.0996525304343L70.91013541666666,80.25765463384373L70.97933854166666,79.55756998803506L71.00240625,81.10029429471835L71.09467708333334,81.49451430178915L71.18694791666667,80.95792951308032L71.27921875,81.42822395976644L71.44069270833333,81.92969830931412L71.78670833333334,81.89926256512601L72.57101041666667,82.85638215237428L72.66328125,82.1176822446542L72.82475520833333,83.53399969713432L73.03236458333333,83.64477922153117L73.53985416666667,83.56051162602347L73.58598958333333,83.35813074967938L73.632125,83.82674324821724L73.74746354166668,85.06365371957767L73.81666666666666,85.4449626109493L74.00120833333332,84.8228402113101L74.09347916666667,84.77767705769426L74.55483333333333,84.7954391879334L74.670171875,84.9399901602733L74.69323958333332,85.23406234654763L74.73937500000001,85.77535338649653L74.808578125,86.057009397359L74.90084895833334,85.8079838453769L74.92391666666667,86.07152229967521L75.085390625,86.3021551378792L75.15459375,86.79739786265219L75.26993229166666,87.52123073811657L75.70821875,87.1622151209008L75.93889583333333,87.28085960755722L76.07730208333334,87.46484526282535L76.21570833333332,87.5429351619328L76.30797916666667,86.64285807984314L76.58479166666667,86.9517473665652L76.607859375,87.3467574086738L77.18455208333333,87.5631362759102L77.39216145833333,88.73583697882039L78.19953124999999,89.09488015621662L78.22259895833334,88.81428615429431L78.268734375,88.40294770619614L79.28371354166666,89.52128963942991L79.46825520833335,89.75752694004746L79.62972916666666,91.05270870596834L79.67586458333334,90.60721655615286L79.722,90.97882665523193L79.83733854166667,92.16550240967794L80.41403125,92.29334446905243L80.43709895833334,92.29186612182629L80.66777604166667,91.99191529469526L80.71391145833334,92.17333068883237L80.82925,92.02983742871515L81.15219791666667,92.56478917379926L81.29060416666667,92.7100786979354L81.49821354166666,92.38164305267586L81.84422916666668,92.71005866616537L81.9365,93.57957077011636L81.98263541666667,93.28438322875857L82.55932812500001,94.79795134402832L83.06681770833333,94.55201441080455L83.20522395833333,94.66872085351399L83.597375,94.02566308679796L83.73578125,93.73799475628846L83.75884895833333,94.99323249220083L84.08179687500001,95.3249840553442L84.22020312500001,95.62230023240087L84.33554166666666,95.13591817742184L84.86609895833332,95.67586215741223L85.02757291666666,96.1106313320973L85.14291145833333,96.1008280768637L85.44279166666666,96.64282765884492L85.60426562500001,96.94525421031463L85.95028125,97.4689914827492L86.22709375,98.34412649626923L86.29629687500001,97.98912442027479L86.61924479166667,98.74844100653499L87.42661458333333,98.93112124890564L87.44968229166668,99.18674101934549L87.47275,99.65016166613785L87.88796875,99.02254933776517L88.23398437499999,98.83522307756493L89.341234375,99.82823408261423L89.54884375,100.55289748081853L89.756453125,101.4383758437506L89.894859375,101.01380599331091L90.37928125,101.31030405039328L90.42541666666666,102.17556201332226L90.44848437499999,101.97442074877355L91.53266666666667,101.6464783105138L91.71720833333333,101.98658693748015L92.247765625,103.25614583357836L92.54764583333333,103.26431402057635L92.63991666666666,103.6696791269367L92.91672916666667,104.14021055124398L92.98593229166666,104.4202859551186L93.17047395833333,104.85967633599317L93.23967708333333,105.31656803260526L93.79330208333333,105.9028858857427L93.88557291666667,106.30336562241416L93.93170833333333,106.2462051699137L94.57760416666667,106.15632766933975L95.10816145833334,106.96717873399783L95.45417708333333,106.584125180157L95.63871875,106.83987349218843L95.75405729166667,107.3632160983997L95.86939583333333,107.20046665615374L96.00780208333333,107.43250083959592L96.37688541666667,107.58212184927757L96.79210416666668,107.89249144975906L96.815171875,107.96885755819251L96.97664583333334,107.5178000979212L97.04584895833334,107.76687439142049L97.59947395833333,108.2520437981475L97.83015104166667,108.53516822900534L97.89935416666667,108.04229277961862L97.922421875,108.56728532157105L97.96855729166667,108.73592603521035L97.991625,108.4583209703781L98.56831770833332,108.49615022840607L98.77592708333333,108.83495703179287L99.32955208333334,109.72452872129043L99.51409375,109.90442845474169L99.83704166666668,109.7430987602927L99.86010937500001,110.24994354354656L100.25226041666667,110.90325992648195L100.92122395833333,110.93350569300203L100.967359375,111.10137089256428L101.19803645833333,111.91151498483579L101.5901875,111.79373104835298L101.70552604166667,112.81679311160805L102.21301562500001,112.31824146624288L102.39755729166667,113.14095272712295L102.65130208333333,112.6116169134606L102.69743749999999,112.49627966607301L102.85891145833332,113.20954706709115L102.99731770833333,113.37353563400993L103.15879166666666,113.36618536595805L103.29719791666666,113.58482545885879L103.36640104166666,113.31122776432896L103.75855208333334,114.04548198831802L104.03536458333333,113.86958312304454L104.10456770833333,114.01802130697578L104.635125,113.87497324016168L104.68126041666666,114.74694199550605L104.81966666666666,115.01829328393868L104.91193750000001,114.81770550505733L105.28102083333334,114.67204095897922L105.673171875,115.26732263381562L106.13452604166667,115.25364489036541L106.54974479166667,116.028389054319L106.59588020833333,116.0399970654475L106.642015625,116.47208753915166L106.71121875,116.39518238973682L106.780421875,115.92472289383792L107.17257291666667,116.94089861994358L107.42631770833333,116.39195093256883L107.74926562499999,116.43338860545718L108.48743229166668,117.40856613969729L109.04105729166668,117.65262619068919L109.13332812499999,118.02071275359809L109.17946354166668,117.64845596920162L109.31786979166668,117.94301680683661L109.38707291666667,118.00511402719104L109.64081770833333,118.30586766841598L109.80229166666666,118.36050527904553L110.102171875,117.94422304570578L110.28671354166666,118.55071155307918L110.58659375,118.8681710724725L110.70193229166667,118.6476337258548L111.071015625,118.33077288535421L111.18635416666667,119.02664856746392L111.23248958333333,119.71557006873589L111.46316666666667,119.49062452611352L111.55543750000001,119.31676472704683L112.22440104166667,119.65628941941901L112.33973958333333,119.41548178589389L112.50121354166666,119.67181657550361L113.51619270833334,120.12933901342612L113.700734375,120.74393382732359L113.86220833333333,120.93951340526345L113.95447916666667,121.4843052013176L114.20822395833333,121.57871112895182L114.34663020833334,121.50984733079603L114.48503645833334,121.58785155621864L114.99252604166666,122.10436103552911L115.24627083333333,122.0851913185395L115.361609375,123.2612272266008L115.56921874999999,122.70856365769424L115.59228645833332,122.6229028637624L115.86909895833332,122.84488666694432L116.12284375,122.49317538439163L116.192046875,122.92665588676292L117.50690625,123.04409099539305L117.62224479166666,123.74302398003962L117.6453125,124.13495732364039L117.87598958333334,124.08660780286692L119.55993229166667,124.58973201025496L119.81367708333333,124.66477673340083L119.83674479166667,125.06287804979739L119.88288020833333,125.06653019204361L119.929015625,125.92984687847952L119.99821874999999,125.49715929111534L120.02128645833334,125.00831762906896L120.59797916666666,125.10473014260948L120.71331770833334,125.23115051254149L120.78252083333334,125.41140786515953L120.9670625,125.27852245565055L121.22080729166667,125.89883175472752L121.42841666666666,125.53481781896724L121.49761979166666,125.9228964592026L121.5206875,126.10920515413834L121.86670312499999,125.7803014204249L122.23578645833334,126.20738029988676L122.37419270833333,126.40615812334377L122.46646354166667,126.6186141931591L122.67407291666666,127.08612872315342L122.72020833333335,127.16460398952472L122.92781770833334,126.83423493661384L123.02008854166667,127.17202138603183L123.27383333333334,127.2081204124035L123.87359375,127.4933845373068L124.081203125,127.53419957505393L124.42721875000001,127.61390865668834L124.58869270833334,127.40454503619353L124.72709895833333,128.29993222191143L124.81936979166667,128.2499888916011L124.8424375,128.52200604553195L125.28072395833334,128.3128499776348L125.34992708333333,128.23805952184176L126.18036458333333,128.44674013749994L126.31877083333333,129.01566019643516L126.66478645833334,129.34487781603355L126.710921875,129.57707322304122L127.10307291666666,129.55455929266788L127.12614062499999,129.74436421700173L127.56442708333333,129.7260754045035L127.58749479166666,129.92388390433192L127.65669791666667,130.11987888516683L127.86430729166666,130.10854414693958L128.11805208333334,130.9949244236496L128.69474479166666,130.91751709860418L128.76394791666667,130.57968037722193L129.01769270833333,131.038439629575L129.08689583333333,130.9601516269533L129.13303125000002,130.41002992902668L129.17916666666667,130.63852368491146L129.45597916666668,131.10054263632705L129.84813020833334,131.50457266409776L130.33255208333333,131.57730068485827L130.49402604166667,131.52928571704987L130.67856770833333,131.2399652018102L130.77083854166665,131.73793345262038L130.9323125,131.6450831404635L130.95538020833334,131.27668657796008L130.97844791666668,131.1450434823334L131.209125,131.39267377594965L131.80888541666667,131.41904458299618L131.92422395833333,132.0725705540754L132.29330729166665,131.69567859016183L132.54705208333334,132.16421511079264L132.63932291666669,132.38654123045526L132.662390625,132.9424099922884L132.84693229166666,133.15313566757064L132.98533854166666,132.9586766951678L133.05454166666667,133.07588966534638L133.26215104166667,132.78283762840093L133.354421875,132.7459347515052L133.51589583333333,133.06163841895733L133.53896354166667,133.41931642539782L133.67736979166668,133.15054876985923L133.81577604166665,133.32146424879298L133.86191145833334,132.98116880468612L133.93111458333334,133.03248190938115L134.738484375,133.62079349961516L135.01529687500002,133.49562048115598L135.45358333333334,133.36968909875654L135.984140625,133.79925511073446L136.44549479166668,133.85479791550947L136.99911979166666,134.13412164034483L137.06832291666666,134.56342781328667L137.368203125,134.54393861055763L137.55274479166667,134.5717377641565L137.76035416666667,134.61658102998874L137.82955729166667,134.33914724001562L137.87569270833333,134.7818183022439L137.89876041666665,135.04396509633656L138.91373958333335,134.7313491587497L139.05214583333333,136.0434477175355L139.12134895833336,136.1062401202369L139.28282291666667,135.976992788224L139.582703125,135.78115444150654L139.62883854166665,135.89161494916647L139.65190625,135.56071205890328L139.81338020833334,135.35251239682356L140.22859895833335,135.63899979780047L140.75915625,135.65627322582645L140.87449479166668,136.72063200637078L141.33584895833332,136.82938453022976L141.381984375,136.82653450220855L141.520390625,136.78947627437987L142.12015104166665,136.98087794035686L142.23548958333333,137.27592707800022L142.627640625,137.09023988578153L143.042859375,137.2886710425224L143.22740104166667,137.12272382651093L143.75795833333333,137.5369978752479L143.85022916666668,137.78899117237512L143.9425,137.7747892341301L144.565328125,137.45838330991776L145.09588541666668,137.74005404851607L145.76484895833332,138.18508784957646L146.01859374999998,138.20216718990073L146.38767708333336,138.1547909308751L146.710625,138.63376493883948L146.73369270833334,139.01476208263614L147.19504687499997,138.64724539284865L147.74867187499999,138.95235699751947L148.11775520833334,139.1525218421841L148.55604166666666,139.49097354363008L148.6252447916667,139.79227083926048L148.74058333333332,139.82826871704418L149.59408854166665,139.86668732951327L149.7555625,139.83204719537642L149.84783333333334,139.78769414407782L149.98623958333332,140.72801556372593L150.12464583333335,140.4764121083597L150.3091875,140.46236796683294L150.35532291666667,140.75994396256002L150.90894791666668,141.2949591911913L151.0934895833333,141.14579381141976L151.485640625,140.82888556136183L151.64711458333332,141.09839024228236L151.92392708333333,140.89581555177202L151.9700625,141.20217636512518L152.10846875,141.31713525142635L152.38528125,141.4445212277383L152.50061979166668,141.3748917336828L152.731296875,141.84622733157843L152.96197395833332,141.91378480582048L153.60786979166664,141.8069019494059L153.65400520833333,141.8525859257427L153.74627604166668,141.68137224560067L154.09229166666665,141.67778972243886L155.03806770833336,141.6277109897046L155.10727083333333,141.88795982779232L155.5224895833333,142.23379461158015L155.93770833333335,142.1000654299948L156.32985937499998,142.23025970117752L156.39906249999999,142.13972032342258L156.51440104166667,142.4239367058595L156.62973958333333,142.4114799352632L157.04495833333334,142.04450975626727L157.06802604166668,142.28515295589835L157.46017708333332,142.48226895914257L157.52938020833335,143.01979034364263L157.69085416666667,143.37521236329442L158.31368229166665,143.1070797991107L158.35981770833334,143.33874868545746L158.52129166666666,143.3227278729479L158.9365104166667,143.52178927133255L159.14411979166667,143.14768793505294L159.35172916666667,143.71856712635335L159.58240625,143.80632436220293L159.83615104166668,143.56289116621963L159.9514895833333,143.51729947547116L160.38977604166666,143.86292526001588L160.50511458333332,143.99647142046177L160.55124999999998,144.16402625601154L160.64352083333335,143.9334268816238L160.85113020833333,143.88889579888308L161.26634895833334,143.83194976058422L161.727703125,143.81681100559894L161.84304166666666,144.37942852993405L162.05065104166667,144.65434577544858L162.18905729166667,144.4777753364719L162.30439583333333,144.53231023449334L162.37359895833333,144.9426292546225L162.88108854166668,144.85947850579387L163.29630729166666,145.17719251653173L163.388578125,145.2273459904401L163.50391666666667,144.96712850937723L163.873,145.17610576141422L163.91913541666665,145.21793743603556L164.28821875,145.28193490882592L164.33435416666666,144.94090398401798L164.47276041666666,145.14232228292354L164.51889583333335,145.08213263465106L164.56503125,145.56953039168627L164.84184375,145.5125287437398L164.88797916666667,145.3881940879797L164.93411458333333,145.2619369802188L165.464671875,145.45452234950386L165.67228125,145.52326757622365L165.741484375,145.62636321645826L166.11056770833332,145.8694080940595L166.36431249999998,145.71546384796054L166.41044791666667,145.75736190568708L166.54885416666667,145.98608827236646L166.848734375,145.9473668213431L166.96407291666665,146.26141585903684L167.125546875,146.03504068679575L167.263953125,145.91446939978323L167.56383333333332,146.12907326486558L168.16359375000002,146.2081926804508L168.6941510416667,146.0264374681207L168.786421875,146.49481288599327L168.80948958333335,146.46089856969584L168.9709635416667,146.32130915099458L169.36311458333333,146.7800749329316L169.61685937500002,146.63269721195624L169.87060416666668,146.87533391805945L170.032078125,147.27243344191754L170.170484375,147.1664036490477L170.724109375,147.12519929958836L171.99283333333332,147.1260560743078L172.08510416666667,147.40213767072515L172.38498437500002,147.11486809906512L172.731,146.95811160138678L172.91554166666668,147.13037643272537L172.938609375,147.27992613832612L173.03088020833334,147.3448648572336L173.26155729166666,147.30397053482358L173.492234375,147.5933990235461L173.51530208333335,147.88856924506027L173.53836979166667,147.45400360867296L173.72291145833336,147.0767141900015L174.184265625,147.1890506425148L174.737890625,147.37819680614572L174.89936458333335,147.78288538056026L174.96856770833332,147.9958529128193L175.19924479166667,147.9516598971819L175.40685416666668,148.18641542830593L175.47605729166668,148.07464638102877L175.706734375,147.94122182236552L175.82207291666666,148.0313591244775L176.65251041666667,148.2403894678244L176.86011979166668,148.57815320584112L176.90625520833333,148.39794530447088L176.99852604166665,148.22468368822365L177.13693229166668,148.62375047913466L177.20613541666665,148.5948408039799L177.367609375,148.28675083046926L177.55215104166666,148.5006582209727L177.6213541666667,148.7197867281507L177.80589583333332,148.82483172698443L177.89816666666667,148.83199725320117L178.52099479166668,148.93702630689418L178.613265625,149.2170668733416L178.86701041666666,149.11509072138654L179.12075520833335,149.1596761630914L179.39756770833333,149.30481591061687L180.34334375,149.2768427334952L180.689359375,149.36582658818017L181.01230729166667,149.14323237531062L181.19684895833333,149.33796971606247L181.51979687500003,149.50836158051595L181.54286458333334,149.58478128039968L182.142625,149.45174038569326L182.46557291666667,149.62780972644376L183.042265625,149.85981178136623L183.43441666666666,150.00843603182153L183.71122916666667,150.3080738334811L183.78043229166667,150.13290724450087L183.91883854166667,150.10309776668564L184.33405729166668,150.0996843602263L184.38019270833334,150.01582342370938L184.79541145833332,150.054447243803L184.8876822916667,149.98584799182015L185.46437500000002,150.20296214434177L185.62584895833334,150.11929992683335L185.92572916666666,150.21074795972723L186.0641354166667,150.4093662208829L186.66389583333333,150.3511790611539L187.00991145833333,150.65359700447624L187.194453125,150.8485335767986L187.21752083333334,150.81164343208115L187.72501041666666,150.84072880859912L187.81728125,150.78015193463239L188.14022916666667,150.8907079967823L188.41704166666665,150.95838253422096L188.440109375,150.99250680128557L188.60158333333334,150.82071074199573L188.92453125,150.89987900807455L189.0629375,151.09269847587L189.27054687499998,151.02586363622697L189.47815625,151.00092775488247L189.52429166666667,151.08194717684L189.54735937499998,151.18247066091664L189.98564583333334,151.50723318973454L190.05484895833334,151.51661600473514L190.26245833333334,151.41609353390842L190.56233854166666,151.34443354093395L191.11596354166667,151.28158443006748L191.485046875,151.4787748931392L191.73879166666666,151.57416948207623L192.15401041666667,151.75393056503265L192.38468749999998,151.7267170952212L192.40775520833336,151.79829983579396L192.54616145833333,151.857458673776L192.70763541666668,151.86326909235765L192.79990625,152.05827927010532L192.82297395833334,152.1822244132595L192.84604166666665,152.0662938274252L193.35353125,152.18326034393613L193.37659895833335,152.1877773589125L193.46886979166666,152.05907935332925L193.51500520833332,152.13807860188967L193.72261458333332,152.4924228959535L193.81488541666667,152.04548606031946L194.48384895833334,152.02679807567316L194.50691666666665,152.0159850447229L194.7145260416667,151.9077015868422L194.78372916666666,152.0494144666295L194.945203125,152.1524149022503L195.17588020833333,152.23557440292856L195.19894791666667,152.36055564110973L195.24508333333335,152.16875808117942L195.360421875,152.2603643730258L195.49882812500002,152.4795301570622L195.59109895833333,152.3857580278507L195.637234375,152.1621579798574L196.0063177083333,152.2448817126036L196.14472395833334,152.22488056101596L196.16779166666666,152.27783578578692L196.35233333333335,152.27655473914183L196.79061979166667,152.33710709722132L197.18277083333334,152.438710638948L197.78253125,152.6244723901982L198.31308854166667,152.64991888268372L198.61296875,152.6938739487487L198.682171875,152.76869885481005L199.39727083333335,152.84423218667186L199.42033854166667,152.9072427762387L199.789421875,152.85394210210754L199.81248958333333,152.86823530379294L200.04316666666668,152.70983075387437L200.11236979166665,153.11169249927156L200.15850520833334,153.21729808007484L200.41225,153.16141760237187L200.55065625,153.30908729962806L200.619859375,153.1530885494829L200.71213020833332,153.2342109491107L201.12734895833333,153.25893064454402L201.15041666666667,153.34899636405405L201.2426875,153.32552547291675L201.311890625,153.25774174183636L201.35802604166668,153.0672762093801L201.68097395833334,153.2145818189639L201.77324479166666,153.22434137898688L202.02698958333335,153.21906977931604L202.09619270833332,153.41010805051636L202.557546875,153.49448451703597L202.74208854166667,153.58960700132224L202.972765625,153.64312573899917L203.249578125,153.69567681075048L203.78013541666667,153.66337176480155L203.89547395833335,153.78182682840128L204.287625,153.86319658597597L205.30260416666667,153.91897021539043L202.58061458333333,155.8601312361864L202.67288541666665,155.4693823649113L203.180375,155.03900314020575L203.31878125,154.89805435157862L204.31069270833333,154.98290494605416L204.495234375,155.1323143283568L204.67977604166668,155.13210541078274L204.70284375,154.91560508394394L205.09499479166666,155.00449715604873L205.39487499999998,155.14208019278172L205.48714583333333,155.21356000177525L205.740890625,155.10065507182668L206.017703125,155.09161986199817L206.08690625000003,154.9721263110762L206.13304166666668,154.96483197740892L206.2253125,154.98974237486743L206.40985416666666,154.82276679065836L207.7939166666667,154.3980382705664L207.93232291666666,154.42679273549612L207.955390625,154.3942953588684L208.34754166666667,154.0033466108768L208.509015625,154.05173239552042L209.03957291666666,153.9689172830764L209.13184374999997,153.92935409108304L209.38558854166666,153.93390396128083L209.45479166666667,153.99641427672753L209.84694270833333,153.7079453544429L209.98534895833336,153.40469777700116L210.28522916666668,153.61576897486418L210.74658333333332,153.38689594106214L210.95419270833332,153.41660017324716L211.32327604166665,153.53680206866997L211.36941145833333,153.58084522887944L211.57702083333334,153.86313278201152L211.78463020833334,153.89089104708646L211.969171875,153.8020671063119L212.43052604166667,153.91569326753427L212.47666145833333,154.04642781959691L212.54586458333335,153.89848609092152L212.592,153.88513067045912L212.73040625,153.98078297440813L213.00721875,154.34669004172278L213.0302864583333,154.55359295438984L213.19176041666665,154.52986927034073L213.26096354166665,154.4791707434069L213.37630208333334,154.56968403598816L213.53777604166666,154.34451717409752L213.58391145833332,154.44953409596243L214.76036458333334,154.49673144336063L215.014109375,154.72128435050473L215.0833125,154.86174461205107L215.19865104166666,154.99352250330372L215.56773437500001,154.87989338196095L215.66000520833333,154.86348049955492L215.68307291666667,154.8192680357341L215.72920833333333,154.9321128721672L215.95988541666668,155.17776310588175L216.05215625,155.20319090316704L216.14442708333334,155.4015130470566L216.35203645833332,155.42081720737562L216.37510416666666,155.44925555651156L216.49044270833335,155.42333557899798L216.58271354166666,155.2193768185139L216.60578125,155.0386628519835L216.95179687499999,155.30629439591846L217.66689583333334,155.45339725705244L217.94370833333332,155.45128196652092L218.10518229166667,155.46517931327435L218.22052083333332,155.51538066892667L218.54346875,155.60905243141474L218.751078125,155.93745540915313L219.09709375,155.8542500013698L219.35083854166666,155.73220120261502L219.5123125,155.80185421937935L219.53538020833335,155.9652790482041L219.74298958333333,155.9413693546089L220.6195625,155.86003341838145L220.688765625,156.01364258864177L220.73490104166666,156.02461151018363L220.80410416666666,156.05512600127489L220.82717187499998,155.97911760030937L220.91944270833335,155.911828679469L221.657609375,156.03349556057688L221.98055729166668,156.21856388254102L222.60338541666667,156.24175811973808L222.74179166666667,156.11379157830407L222.83406250000002,156.2466424152714L223.24928125,156.34573302710254L223.36461979166666,156.19440474706838L223.71063541666666,156.34091113821577L223.77983854166666,156.48334753488763L223.84904166666666,156.33778452858485L224.33346354166667,156.3165904929775L224.58720833333334,156.25063595221525L224.91015625,156.08050979488456L225.14083333333335,156.33048782790863L225.21003645833332,156.25259767797684L225.30230729166666,156.19152936917516L225.69445833333333,156.12731375956008L225.74059375,156.11575469514668L225.809796875,156.10747142518125L226.29421875,156.13930222238127L226.34035416666666,156.1496215325723L226.45569270833334,156.23208613425416L226.70943749999998,156.19629522273323L226.89397916666667,156.29968549248633L226.98624999999998,156.39773119693092L227.37840104166668,156.34329039747004L227.51680729166665,156.24515353633794L227.747484375,156.26115876347407L227.79361979166666,156.35749742079983L227.93202604166666,156.30079040256948L228.04736458333332,156.37457546276252L228.162703125,156.49979599269528L228.23190625,156.46405621227714L228.577921875,156.43277420571843L228.60098958333333,156.33627531681725L229.2238177083333,156.52200300376745L229.408359375,156.53126969351763L229.63903645833332,156.5835736963585L229.89278125,156.5322843024905L230.37720312500002,156.50406770543054L230.76935416666666,156.42811079063634L230.792421875,156.36077576932766L231.53058854166667,156.51494970866798L231.55365625000002,156.5247920178016L231.6920625,156.57322836568082L232.89158333333336,156.70744724320588L232.93771875000002,156.823130272738L233.16839583333334,156.6958975894437L233.32986979166665,156.93674155918444L233.95269791666666,156.86143547972083L234.43711979166667,156.86576379261723L234.667796875,156.9054843072007L235.03688020833332,156.81978766566831L235.08301562499997,156.88896264955335L235.1291510416667,156.98584093389726L235.24448958333332,156.96960526889112L235.98265625000002,156.88754330643488L236.09799479166665,156.9282445992566L236.35173958333334,157.13401865447213L236.37480729166666,157.12625882999603L236.397875,157.08436157859694L236.467078125,157.13495392620678L236.83616145833335,157.15306139770644L237.45898958333333,157.37791747151482L237.52819270833334,157.37672843940828L237.989546875,157.26677343236923L238.12795312499998,157.29894034429333L238.15102083333332,157.28041036005325L238.75078125000002,157.1704179368092L238.91225520833333,157.16250661314993L239.07372916666668,157.40621767649506L239.83496354166664,157.3759181256517L240.342453125,157.4838219735279L240.36552083333333,157.52184706221973L240.57313020833334,157.36877921397064L240.73460416666668,157.37394920265848L240.80380729166666,157.3965054877598L240.96528125,157.41424722753246L241.034484375,157.4964421638216L241.47277083333333,157.42474916269572L241.54197395833336,157.5622833752899L241.79571875000002,157.5373320110345L242.04946354166665,157.47193206969268L242.280140625,157.54120891721212L242.32627604166666,157.67492154157003L242.34934374999997,157.59085512877436L242.418546875,157.42998434224003L242.97217187500002,157.4307921510321L243.08751041666667,157.56688327848633L243.110578125,157.7627705461792L243.20284895833333,157.78498772288293L243.64113541666666,157.90550330752518L243.8718125,157.82551764788005L244.05635416666667,157.8623628202442L244.33316666666667,157.79803825006778L245.255875,157.80818985538932L245.463484375,157.79251882217676L245.48655208333335,157.77565152089636L245.62495833333332,157.85630097600892L245.67109374999998,157.96886203143555L245.878703125,158.04294056396392L246.68607291666666,157.99958925835145L247.33196875,158.0424428205345L247.40117187500002,158.1472637580512L247.47037500000002,158.17944974462262L247.67798437500002,158.0694172989645L248.32388020833335,158.11303299732916L248.87750520833333,158.1385977187117L249.10818229166668,158.109338227583L250.37690625,158.15676504933077L250.5153125,158.1461844256458L250.60758333333334,158.15517397843567L250.6767864583333,158.09295097492367L250.93053125,158.11324946583647L251.34575,158.1634420867557L251.46108854166667,158.1219437004035L252.1761875,158.09169717828152L252.29152604166666,158.1175747372406L252.31459375,158.08243311817205L252.36072916666666,158.08725854126325L252.63754166666666,158.05467145662135L252.68367708333335,158.08611349986654L252.96048958333336,158.2333175566253L253.19116666666665,158.30682827051365L253.491046875,158.23414694165433L253.60638541666668,158.2618467571622L253.629453125,158.07634814752853L253.97546875,158.1735958586557L254.113875,158.2585356330272L254.34455208333333,158.2421083064401L254.8981770833333,158.2925386537881L255.290328125,158.25171173273154L255.4748697916667,158.2501397648968L255.79781770833335,158.32690547565582L256.5129166666667,158.38047154513407L256.674390625,158.3027922514267L256.74359375,158.41488258687352L256.9281354166667,158.39157619862374L257.29721875,158.4668984136584L257.38948958333333,158.48620776151944L257.504828125,158.6024178630176L257.55096354166665,158.3995936986586L257.59709895833333,158.31137861811658L257.66630208333333,158.45719315156322L258.473671875,158.43680235216863L258.612078125,158.47250645781324L258.63514583333335,158.59722750014353L258.79661979166667,158.49023646319253L259.0042291666667,158.58304255300794L259.2579739583333,158.60243048638807L259.4655833333333,158.57295336092793L259.7423958333333,158.60489931136965L260.11147916666664,158.62290712851643L260.1576145833333,158.68413888097535L260.18068229166664,158.56644437548528L260.22681770833333,158.7148838867963L260.36522395833333,158.64282227423826L260.45749479166665,158.6398484656379L260.57283333333334,158.58321596932544L260.71123958333334,158.59344458943175L260.826578125,158.7059920605242L260.87271354166666,158.73869198248673" style="fill: none;" fill="none"></path></g></g></g></g><g opacity="0.2"><g><g><g><path stroke="rgb(255, 112, 67)" stroke-width="2px" d="M33.286703124999995,-2.5359025682721708L33.35590625,1.0113122122628404L33.701921875,0.07935850960868862L33.771125,0.228951862880173L33.794192708333334,-2.7155884334019085L34.02486979166667,4.769519260951462L34.46315625,4.900874274117603L34.947578125,10.898965290614548L35.45506770833333,9.054405212402344L36.07789583333333,10.037881851196289L36.30857291666666,6.3279756818499L36.446979166666665,14.876751763480053L36.608453125000004,11.614351817539768L36.63152083333333,10.70492253984724L37.392755208333334,15.426329748971119L37.438890625,12.854439054216671L37.715703125000005,19.99099513462612L37.877177083333336,15.656294686453686L37.900244791666665,16.853416170392723L37.94638020833333,21.933535712105886L38.01558333333333,17.639358248029442L38.061718750000004,19.177133560180664L38.33853125,16.637928009033203L38.569208333333336,20.226265226091652L39.56111979166666,20.369159698486328L39.74566145833334,25.877273287091942L39.930203125,24.750167846679688L40.137812499999995,24.791859763009207L40.43769270833334,28.742685862949926L40.52996354166667,30.69167055402483L40.737572916666664,26.73663330078125L40.829843749999995,26.93647575378418L40.87597916666667,24.246957506452294L40.92211458333334,27.830843789236887L41.083588541666664,25.27665192740305L41.19892708333334,24.80055182320732L41.245062499999996,30.26919146946499L41.36040104166667,31.876368386404856L41.406536458333335,26.131770815168114L41.498807291666665,29.64493669782366L41.591078124999996,32.66169602530344L41.729484375,28.251089913504465L41.752552083333335,29.88657597133091L42.283109375,32.518456867762985L42.37538020833333,31.698540823800222L43.13661458333333,35.309762137276785L43.29808854166667,31.166122164045067L43.43649479166667,31.910687037876684L44.0131875,36.42095211574009L44.05932291666667,38.714764322553364L44.243864583333334,33.659529549734934L44.566812500000005,37.33742495945522L44.82055729166666,37.82813671657017L44.88976041666666,39.864154406956274L45.097369791666665,40.84232589176723L45.28191145833333,37.89797292436872L45.48952083333333,44.12701048169817L45.512588541666666,39.74982384272984L45.65099479166666,38.828413009643555L45.674062500000005,38.26096384865898L45.789401041666665,42.57136399405344L46.204619791666666,40.567791666303364L46.27382291666667,40.83334159851074L46.481432291666664,42.83880969456264L47.473343750000005,42.81120491027832L47.611749999999994,46.37185491834368L47.680953124999995,44.43661267416819L47.72708854166667,46.89743232727051L47.819359375,48.46839482443674L47.95776562499999,46.51552867889404L48.07310416666667,42.6195000239781L48.30378125,46.564219202314106L48.442187499999996,44.704807690211695L48.55752604166667,48.953801427568706L48.788203124999995,46.034250804356176L49.757046875,50.41298103332522L49.84931770833334,48.428373881748755L49.87238541666667,47.43426445552281L49.895453124999996,46.447273526872905L50.310671875,47.192302976335796L50.61055208333333,49.206785338265554L50.910432291666666,53.29321507045202L51.78700520833333,49.634577069963726L52.04075,51.62981700897219L52.109953125,53.12212385450093L52.17915625,54.60579109191897L52.64051041666667,54.81982558114189L52.77891666666667,58.56802926744736L52.940390625,53.89737319946291L53.078796875,56.62573596409389L53.44788020833333,54.80845846448628L53.51708333333333,54.634235109601704L53.770828125,57.51533085959299L53.84003125,55.08017526354111L53.909234375000004,55.32772663661413L53.93230208333333,56.63397094181606L55.039552083333334,59.204220635550385L55.108755208333335,61.52251298086985L55.177958333333336,56.975411551339306L55.201026041666665,58.45427567618235L55.708515625000004,58.64290087563652L55.985328125,57.629346711295014L56.216005208333335,59.3416076387678L56.308276041666666,60.26689992632187L56.88496875,59.28857857840403L56.908036458333335,58.40296254839218L57.16178125,60.53609902518137L57.346322916666665,65.94554274422782L57.48472916666667,60.738721438816626L58.22289583333334,60.39776039123537L58.31516666666667,65.45773833138603L58.891859374999996,65.93349375043599L59.26094270833333,65.8490084239415L59.28401041666667,65.6944546018328L59.63002604166667,63.12921033586777L59.722296875,65.18252222878593L60.091380208333334,66.3602888924735L60.11444791666667,65.75409262520927L60.6219375,65.9526162828718L60.852614583333335,67.82642963954382L60.92181770833333,65.95048822675435L61.03715625,67.70873464856831L61.106359375000004,68.78749425070627L61.383171875,68.9381366457258L61.56771354166667,66.77854933057515L61.890661458333334,72.1295464379447L62.09827083333333,68.73357350485666L62.19054166666666,71.21355315617153L62.23667708333333,70.19124698638917L62.2828125,70.9147186279297L62.352015625,66.75522313799179L62.51348958333333,72.34854139600483L62.721098958333336,68.36399609701975L63.044046875,70.50809506007604L63.090182291666665,72.51357814243862L63.159385416666666,70.79378659384592L63.27472395833333,68.27448286328999L63.343927083333334,69.81351702553886L63.36699479166666,70.01687376839774L63.828348958333336,71.67423983982631L64.03595833333334,72.2110345023019L64.17436458333333,70.03569657461985L64.33583854166666,74.97113077981132L64.35890625,74.36792428152903L64.56651562500001,71.66282776423864L64.72798958333334,73.2272037778582L65.21241145833334,72.0779860360282L65.30468229166667,72.56042534964426L65.535359375,76.71462317875454L65.62763020833333,73.54017789023264L65.83523958333333,75.4322670527867L66.13511979166667,73.68988364083427L66.20432291666667,73.5313584463937L66.34272916666667,75.04841518402101L66.38886458333333,73.26023360661098L67.17316666666667,74.89697102137976L67.31157291666666,77.61356203896659L67.70372395833334,77.08697305406844L67.93440104166667,75.70629174368723L68.00360416666666,78.92811625344413L68.04973958333333,75.79985128130232L68.46495833333333,76.47141034262522L68.78790625,78.59136635916575L68.83404166666666,77.69801739283972L69.24926041666666,79.59095328194755L69.34153125,78.64477007729667L69.52607291666666,79.63940402439663L69.91822395833333,78.36909689222065L70.05663020833333,80.79478863307409L70.61025520833333,80.93579483032228L70.91013541666666,80.49465778895788L70.97933854166666,78.507443019322L71.00240625,83.4143807547433L71.09467708333334,82.08584431239538L71.18694791666667,80.1530523300171L71.27921875,82.13366562979563L71.44069270833333,82.68190983363561L71.78670833333334,81.85360894884383L72.57101041666667,84.29206153324672L72.66328125,81.00963238307409L72.82475520833333,85.6584758758545L73.03236458333333,83.81094850812642L73.53985416666667,83.43411023276194L73.58598958333333,83.05455943516323L73.632125,84.529661996024L73.74746354166668,86.9190194266183L73.81666666666666,86.01692594800679L74.00120833333332,83.8896566118513L74.09347916666667,84.70993232727052L74.55483333333333,84.82208238329207L74.670171875,85.15681661878315L74.69323958333332,85.67517062595913L74.73937500000001,86.58728994641987L74.808578125,86.4794934136527L74.90084895833334,85.43444551740376L74.92391666666667,86.4668299811227L75.085390625,86.6481043951852L75.15459375,87.54026194981166L75.26993229166666,88.60698005131313L75.70821875,86.6236916950771L75.93889583333333,87.45882633754186L76.07730208333334,87.74082374572755L76.21570833333332,87.66007001059397L76.30797916666667,85.29274245670864L76.58479166666667,87.41508129664831L76.607859375,87.93927247183665L77.18455208333333,87.88770457676479L77.39216145833333,90.49488803318569L78.19953124999999,89.63344492231099L78.22259895833334,88.39339515141079L78.268734375,87.7859400340489L79.28371354166666,91.19880253928049L79.46825520833335,90.11188289097377L79.62972916666666,92.9954813548497L79.67586458333334,89.93897833142964L79.722,91.53624180385046L79.83733854166667,93.94551604134696L80.41403125,92.48510755811421L80.43709895833334,92.28964860098704L80.66777604166667,91.54198905399868L80.71391145833334,92.44545378003804L80.82925,91.81459753853935L81.15219791666667,93.36721679142543L81.29060416666667,92.9280129841396L81.49821354166666,91.88898958478657L81.84422916666668,93.20268208639963L81.9365,94.88383892604284L81.98263541666667,92.8416019167219L82.55932812500001,97.0683035169329L83.06681770833333,94.18310901096889L83.20522395833333,94.84378051757812L83.597375,93.061076436724L83.73578125,93.30649226052421L83.75884895833333,96.87608909606934L84.08179687500001,95.8226114000593L84.22020312500001,96.06827449798584L84.33554166666666,94.40634509495327L84.86609895833332,96.48577812739782L85.02757291666666,96.76278509412495L85.14291145833333,96.08612319401333L85.44279166666666,97.45582703181677L85.60426562500001,97.39889403751918L85.95028125,98.25459739140102L86.22709375,99.65682901654927L86.29629687500001,97.45662130628315L86.61924479166667,99.8874158859253L87.42661458333333,99.20514161246165L87.44968229166668,99.57017067500524L87.47275,100.34529263632639L87.88796875,98.08113084520615L88.23398437499999,98.5542336872646L89.341234375,101.31775059018818L89.54884375,101.639892578125L89.756453125,102.76659338814872L89.894859375,100.37695121765137L90.37928125,101.75505113601685L90.42541666666666,103.47344895771572L90.44848437499999,101.67270885195053L91.53266666666667,101.15456465312414L91.71720833333333,102.49674987792969L92.247765625,105.16048417772568L92.54764583333333,103.27656630107336L92.63991666666666,104.27772678647725L92.91672916666667,104.84600768770493L92.98593229166666,104.84039906093054L93.17047395833333,105.51876190730505L93.23967708333333,106.00190557752339L93.79330208333333,106.78236266544887L93.88557291666667,106.90408522742136L93.93170833333333,106.16046449116298L94.57760416666667,106.02151141847885L95.10816145833334,108.18345533098496L95.45417708333333,106.00954484939575L95.63871875,107.2234959602356L95.75405729166667,108.14823000771659L95.86939583333333,106.95634249278478L96.00780208333333,107.78055211475917L96.37688541666667,107.80655336380005L96.79210416666668,108.35804585048132L96.815171875,108.08340672084265L96.97664583333334,106.8412139075143L97.04584895833334,108.14048583166941L97.59947395833333,108.97979790823801L97.83015104166667,108.95985487529211L97.89935416666667,107.30297960553852L97.922421875,109.3547741344997L97.96855729166667,108.9888871056693L97.991625,108.04191337312973L98.56831770833332,108.552894115448L98.77592708333333,109.34316723687309L99.32955208333334,111.05888625553676L99.51409375,110.17427805491856L99.83704166666668,109.50110421861923L99.86010937500001,111.01021071842739L100.25226041666667,111.88323450088501L100.92122395833333,110.97887434278218L100.967359375,111.35316869190761L101.19803645833333,113.12673112324306L101.5901875,111.6170551436288L101.70552604166667,114.35138620649067L102.21301562500001,111.57041399819511L102.39755729166667,114.37501961844309L102.65130208333333,111.81761319296702L102.69743749999999,112.32327379499165L102.85891145833332,114.27944816861836L102.99731770833333,113.61951848438808L103.15879166666666,113.35515996388027L103.29719791666666,113.91278559820994L103.36640104166666,112.90083122253418L103.75855208333334,115.1468633243016L104.03536458333333,113.60573482513428L104.10456770833333,114.24067858287266L104.635125,113.66040113994053L104.68126041666666,116.0548951285226L104.81966666666666,115.42532021658762L104.91193750000001,114.51682383673533L105.28102083333334,114.45354413986206L105.673171875,116.16024514607021L106.13452604166667,115.23312827519008L106.54974479166667,117.19050530024937L106.59588020833333,116.05740908214024L106.642015625,117.1202232497079L106.71121875,116.27982466561454L106.780421875,115.21903364998954L107.17257291666667,118.46516220910209L107.42631770833333,115.5685294015067L107.74926562499999,116.49554511478969L108.48743229166668,118.87133244105748L109.04105729166668,118.01871626717704L109.13332812499999,118.57284259796143L109.17946354166668,117.09007079260691L109.31786979166668,118.3848580632891L109.38707291666667,118.0982598577227L109.64081770833333,118.7569981302534L109.80229166666666,118.44246169498989L110.102171875,117.31979969569615L110.28671354166666,119.46044431413925L110.58659375,119.3443603515625L110.70193229166667,118.31682770592826L111.071015625,117.85548162460327L111.18635416666667,120.07046209062851L111.23248958333333,120.74895232064384L111.46316666666667,119.15320621218002L111.55543750000001,119.05597502844675L112.22440104166667,120.1655764579773L112.33973958333333,119.05427033560618L112.50121354166666,120.05631875991821L113.51619270833334,120.8156226703099L113.700734375,121.66582604816982L113.86220833333333,121.2328827721732L113.95447916666667,122.30149289539882L114.20822395833333,121.72032002040318L114.34663020833334,121.40655163356236L114.48503645833334,121.70485789435251L114.99252604166666,122.87912525449482L115.24627083333333,122.05643674305507L115.361609375,125.02528108869282L115.56921874999999,121.87956830433437L115.59228645833332,122.49441167286464L115.86909895833332,123.17786237171718L116.12284375,121.96560846056259L116.192046875,123.57687664031982L117.50690625,123.22024365833828L117.62224479166666,124.79142345700947L117.6453125,124.72285733904158L117.87598958333334,124.01408352170674L119.55993229166667,125.34441832133702L119.81367708333333,124.7773438181196L119.83674479166667,125.66003002439228L119.88288020833333,125.07200840541294L119.929015625,127.22482190813338L119.99821874999999,124.84812791006907L120.02128645833334,124.27505513599941L120.59797916666666,125.24934891292027L120.71331770833334,125.42078106743949L120.78252083333334,125.68179389408657L120.9670625,125.07919434138707L121.22080729166667,126.82929570334299L121.42841666666666,124.9887969153268L121.49761979166666,126.50501441955566L121.5206875,126.38866819654194L121.86670312499999,125.28694581985474L122.23578645833334,126.84799861907959L122.37419270833333,126.70432485852925L122.46646354166667,126.93729829788208L122.67407291666666,127.78740051814488L122.72020833333335,127.28231688908168L122.92781770833334,126.33868135724751L123.02008854166667,127.67870106015889L123.27383333333334,127.26226895196098L123.87359375,127.9212807246617L124.081203125,127.59542213167464L124.42721875000001,127.73347227913993L124.58869270833334,127.09049960545131L124.72709895833333,129.64301300048828L124.81936979166667,128.1750738961356L124.8424375,128.93003177642822L125.28072395833334,127.9991158757891L125.34992708333333,128.1258738381522L126.18036458333333,128.75976106098722L126.31877083333333,129.86904028483798L126.66478645833334,129.8387042454311L126.710921875,129.92536633355277L127.10307291666666,129.52078839710782L127.12614062499999,130.02907160350253L127.56442708333333,129.69864218575614L127.58749479166666,130.22059665407454L127.65669791666667,130.41387135641915L127.86430729166666,130.09154203959872L128.11805208333334,132.3244948387146L128.69474479166666,130.80140611103604L128.76394791666667,130.0729252951486L129.01769270833333,131.72657850810458L129.08689583333333,130.8427196230207L129.13303125000002,129.58484738213676L129.17916666666667,130.98126431873868L129.45597916666668,131.7935710634504L129.84813020833334,132.11061770575387L130.33255208333333,131.68639271599906L130.49402604166667,131.45726326533725L130.67856770833333,130.80598442895072L130.77083854166665,132.48488582883564L130.9323125,131.50580767222812L130.95538020833334,130.724091734205L130.97844791666668,130.94757883889335L131.209125,131.76411921637398L131.80888541666667,131.458600793566L131.92422395833333,133.05285951069425L132.29330729166665,131.13034064429146L132.54705208333334,132.8670198917389L132.63932291666669,132.72003040994917L132.662390625,133.77621313503812L132.84693229166666,133.46922418049405L132.98533854166666,132.66698823656355L133.05454166666667,133.2517091206142L133.26215104166667,132.3432595729828L133.354421875,132.69058043616158L133.51589583333333,133.5351939201355L133.53896354166667,133.9558334350586L133.67736979166668,132.74739728655135L133.81577604166665,133.5778374671936L133.86191145833334,132.47072563852583L133.93111458333334,133.1094515664237L134.738484375,134.50326088496618L135.01529687500002,133.30786095346724L135.45358333333334,133.1807920251574L135.984140625,134.44360412870137L136.44549479166668,133.93811212267195L136.99911979166666,134.55310722759793L137.06832291666666,135.20738707269942L137.368203125,134.51470480646407L137.55274479166667,134.6134364945548L137.76035416666667,134.6838459287371L137.82955729166667,133.9229965550559L137.87569270833333,135.4458248955863L137.89876041666665,135.4371852874756L138.91373958333335,134.26242525236947L139.05214583333333,138.0115955557142L139.12134895833336,136.20042872428894L139.28282291666667,135.78312179020475L139.582703125,135.48739692143033L139.62883854166665,136.05730571065632L139.65190625,135.06435772350858L139.81338020833334,135.04021290370397L140.22859895833335,136.06873089926583L140.75915625,135.68218336786543L140.87449479166668,138.31717017718722L141.33584895833332,136.99251331601826L141.381984375,136.82225946017672L141.520390625,136.7338889326368L142.12015104166665,137.26798043932234L142.23548958333333,137.71850078446525L142.627640625,136.81170909745353L143.042859375,137.58631777763367L143.22740104166667,136.87380300249373L143.75795833333333,138.15840894835335L143.85022916666668,138.166981118066L143.9425,137.7534863267626L144.565328125,136.98377442359924L145.09588541666668,138.1625601564135L145.76484895833332,138.85263855116708L146.01859374999998,138.22778620038716L146.38767708333336,138.08372654233662L146.710625,139.35222595078605L146.73369270833334,139.58625779833113L147.19504687499997,138.0959703581674L147.74867187499999,139.41002440452576L148.11775520833334,139.452769109181L148.55604166666666,139.99865109579903L148.6252447916667,140.24421678270613L148.74058333333332,139.88226553371976L149.59408854166665,139.92431524821689L149.7555625,139.78008699417114L149.84783333333334,139.72116456712996L149.98623958333332,142.13849769319808L150.12464583333335,140.0990069253104L150.3091875,140.44130175454276L150.35532291666667,141.2063079561506L150.90894791666668,142.09748203413827L151.0934895833333,140.92204574176242L151.485640625,140.35352318627494L151.64711458333332,141.50264726366316L151.92392708333333,140.59195351600647L151.9700625,141.66171758515495L152.10846875,141.48957358087813L152.38528125,141.63560019220625L152.50061979166668,141.2704474925995L152.731296875,142.5532307284219L152.96197395833332,142.01512101718356L153.60786979166664,141.64657766478402L153.65400520833333,141.9211118902479L153.74627604166668,141.42455172538757L154.09229166666665,141.6724159376962L155.03806770833336,141.55259289060322L155.10727083333333,142.2783330849239L155.5224895833333,142.75254678726196L155.93770833333335,141.89947165761677L156.32985937499998,142.42555110795158L156.39906249999999,142.00391125679016L156.51440104166667,142.85026127951485L156.62973958333333,142.3927947793688L157.04495833333334,141.49405448777335L157.06802604166668,142.64611775534493L157.46017708333332,142.77794296400887L157.52938020833335,143.82607242039273L157.69085416666667,143.90834539277213L158.31368229166665,142.70488095283508L158.35981770833334,143.6862520149776L158.52129166666666,143.29869665418354L158.9365104166667,143.82038136890958L159.14411979166667,142.58653593063354L159.35172916666667,144.57488591330392L159.58240625,143.93796021597726L159.83615104166668,143.1977413722447L159.9514895833333,143.44891193934848L160.38977604166666,144.38136393683297L160.50511458333332,144.19679066113065L160.55124999999998,144.41535850933622L160.64352083333335,143.5875278200422L160.85113020833333,143.822099174772L161.26634895833334,143.7465307031359L161.727703125,143.794102873121L161.84304166666666,145.22335481643677L162.05065104166667,145.06672164372037L162.18905729166667,144.21291967800687L162.30439583333333,144.61411258152555L162.37359895833333,145.5581077848162L162.88108854166668,144.73475238255094L163.29630729166666,145.65376353263855L163.388578125,145.30257620130266L163.50391666666667,144.57680228778293L163.873,145.4895716394697L163.91913541666665,145.28068494796753L164.28821875,145.37793111801147L164.33435416666666,144.4293575968061L164.47276041666666,145.44444973128182L164.51889583333335,144.99184816224235L164.56503125,146.3006270272391L164.84184375,145.42702627182007L164.88797916666667,145.2016921043396L164.93411458333333,145.07255131857735L165.464671875,145.74340040343148L165.67228125,145.62638541630338L165.741484375,145.78100667681014L166.11056770833332,146.23397541046143L166.36431249999998,145.4845474788121L166.41044791666667,145.8202089922769L166.54885416666667,146.32917782238553L166.848734375,145.88928464480807L166.96407291666665,146.73248941557748L167.125546875,145.69547792843412L167.263953125,145.73361246926444L167.56383333333332,146.4509790624891L168.16359375000002,146.32687180382865L168.6941510416667,145.75380464962552L168.786421875,147.19737601280212L168.80948958333335,146.41002709524972L168.9709635416667,146.11192502294267L169.36311458333333,147.46822360583712L169.61685937500002,146.41163063049316L169.87060416666668,147.23928897721427L170.032078125,147.86808272770475L170.170484375,147.00735895974296L170.724109375,147.06339277539934L171.99283333333332,147.127341236387L172.08510416666667,147.81626006535123L172.38498437500002,146.68396374157498L172.731,146.7229768548693L172.91554166666668,147.38877367973328L172.938609375,147.5042506967272L173.03088020833334,147.44227293559481L173.26155729166666,147.2426290512085L173.492234375,148.02754175662994L173.51530208333335,148.33132457733154L173.53836979166667,146.80215515409196L173.72291145833336,146.5107800619943L174.184265625,147.3575553212847L174.737890625,147.66191605159213L174.89936458333335,148.38991824218203L174.96856770833332,148.3153042112078L175.19924479166667,147.8853703737259L175.40685416666668,148.53854872499193L175.47605729166668,147.90699281011308L175.706734375,147.74108498437064L175.82207291666666,148.16656507764543L176.65251041666667,148.55393498284477L176.86011979166668,149.0847988128662L176.90625520833333,148.12763345241547L176.99852604166665,147.96479126385282L177.13693229166668,149.22235066550118L177.20613541666665,148.55147629124778L177.367609375,147.82461587020327L177.55215104166666,148.82151930672782L177.6213541666667,149.04847948891776L177.80589583333332,148.98239922523499L177.89816666666667,148.84274554252625L178.52099479166668,149.09456988743375L178.613265625,149.63712772301267L178.86701041666666,148.96212649345398L179.12075520833335,149.22655432564872L179.39756770833333,149.52252553190505L180.34334375,149.23488296781267L180.689359375,149.49930237020766L181.01230729166667,148.8093410560063L181.19684895833333,149.63007572719027L181.51979687500003,149.76394937719618L181.54286458333334,149.69941083022525L182.142625,149.2521790436336L182.46557291666667,149.89191373756955L183.042265625,150.20781486374992L183.43441666666666,150.2313724075045L183.71122916666667,150.75753053597043L183.78043229166667,149.87015736103058L183.91883854166667,150.05838354996274L184.33405729166668,150.09456425053733L184.38019270833334,149.890032018934L184.79541145833332,150.11238297394345L184.8876822916667,149.88294911384583L185.46437500000002,150.52863337312425L185.62584895833334,149.99380660057068L185.92572916666666,150.34792000906808L186.0641354166667,150.7072936126164L186.66389583333333,150.26389832156045L187.00991145833333,151.10722391945976L187.194453125,151.140938435282L187.21752083333334,150.75630821500505L187.72501041666666,150.88435687337602L187.81728125,150.68928662368228L188.14022916666667,151.05654209000724L188.41704166666665,151.0598943403789L188.440109375,151.0436932018825L188.60158333333334,150.5630166530609L188.92453125,151.01863140719277L189.0629375,151.38192767756325L189.27054687499998,150.9256113767624L189.47815625,150.96352393286568L189.52429166666667,151.2034763097763L189.54735937499998,151.33325588703156L189.98564583333334,151.9943769829614L190.05484895833334,151.53069022723605L190.26245833333334,151.26530982766832L190.56233854166666,151.23694355147225L191.11596354166667,151.18731076376778L191.485046875,151.77456058774675L191.73879166666666,151.7172613654818L192.15401041666667,152.0235721894673L192.38468749999998,151.685896890504L192.40775520833336,151.9056739466531L192.54616145833333,151.94619693074907L192.70763541666668,151.8719847202301L192.79990625,152.35079453672682L192.82297395833334,152.36814212799072L192.84604166666665,151.8923979486738L193.35353125,152.35871011870248L193.37659895833335,152.1945528813771L193.46886979166666,151.86603234495436L193.51500520833332,152.25657747473036L193.72261458333332,153.02393933704923L193.81488541666667,151.37508080686843L194.48384895833334,151.99876609870364L194.50691666666665,151.99976549829756L194.7145260416667,151.74527640002114L194.78372916666666,152.26198378631045L194.945203125,152.30691555568148L195.17588020833333,152.36031365394592L195.19894791666667,152.5480274983815L195.24508333333335,151.88106174128396L195.360421875,152.39777381079537L195.49882812500002,152.8082788331168L195.59109895833333,152.24509983403343L195.637234375,151.82675790786743L196.0063177083333,152.36896731172288L196.14472395833334,152.1948788336345L196.16779166666666,152.35726862294334L196.35233333333335,152.2746331691742L196.79061979166667,152.42793563434054L197.18277083333334,152.5911159515381L197.78253125,152.9031150170735L198.31308854166667,152.68808862141202L198.61296875,152.7598065478461L198.682171875,152.88093621390206L199.39727083333335,152.95753218446458L199.42033854166667,153.00175866058896L199.789421875,152.77399109091078L199.81248958333333,152.88967510632108L200.04316666666668,152.4722239289965L200.11236979166665,153.71448511736733L200.15850520833334,153.37570645127977L200.41225,153.0775968858174L200.55065625,153.5305918455124L200.619859375,152.91909042426516L200.71213020833332,153.35589454855239L201.12734895833333,153.296010187694L201.15041666666667,153.48409494331906L201.2426875,153.29031913621085L201.311890625,153.15606614521573L201.35802604166668,152.78157791069577L201.68097395833334,153.43554023333957L201.77324479166666,153.23898071902138L202.02698958333335,153.2111623798098L202.09619270833332,153.6966654573168L202.557546875,153.6210492168154L202.74208854166667,153.7322907277516L202.972765625,153.72340384551455L203.249578125,153.77450341837746L203.78013541666667,153.61491419587816L203.89547395833335,153.95950942380088L204.287625,153.98525122233798L205.30260416666667,154.0026306595121L202.58061458333333,158.7718727673803L202.67288541666665,154.88325905799866L203.180375,154.39343430314744L203.31878125,154.68663116863797L204.31069270833333,155.11018083776747L204.495234375,155.35642840181077L204.67977604166668,155.13179203442166L204.70284375,154.5908545936857L205.09499479166666,155.13783526420593L205.39487499999998,155.3484547478812L205.48714583333333,155.32077971526553L205.740890625,154.93129767690385L206.017703125,155.0780670472554L206.08690625000003,154.79288598469327L206.13304166666668,154.953890476908L206.2253125,155.02710797105516L206.40985416666666,154.5723034143448L207.7939166666667,153.76094549042838L207.93232291666666,154.46992443289076L207.955390625,154.34554929392678L208.34754166666667,153.41692348888944L208.509015625,154.1243110724858L209.03957291666666,153.8446946144104L209.13184374999997,153.87000930309296L209.38558854166666,153.9407287665776L209.45479166666667,154.09017974989754L209.84694270833333,153.27524197101593L209.98534895833336,152.94982641083854L210.28522916666668,153.93237577165877L210.74658333333332,153.04358639035905L210.95419270833332,153.46115652152469L211.32327604166665,153.7171049118042L211.36941145833333,153.6469099691936L211.57702083333334,154.2865641117096L211.78463020833334,153.93252844469887L211.969171875,153.66883119515012L212.43052604166667,154.08613250936781L212.47666145833333,154.2425296476909L212.54586458333335,153.67657349790846L212.592,153.8650975397655L212.73040625,154.12426143033164L213.00721875,154.89555064269473L213.0302864583333,154.86394732339042L213.19176041666665,154.49428374426705L213.26096354166665,154.4031229530062L213.37630208333334,154.70545397486006L213.53777604166666,154.00676688126157L213.58391145833332,154.60705947875977L214.76036458333334,154.56752746445792L215.014109375,155.05811371122087L215.0833125,155.07243500437056L215.19865104166666,155.19118934018272L215.56773437500001,154.70944969994682L215.66000520833333,154.83886117594582L215.68307291666667,154.75294934000289L215.72920833333333,155.10138012681688L215.95988541666668,155.54623845645358L216.05215625,155.24133259909493L216.14442708333334,155.69899626289094L216.35203645833332,155.44977344785417L216.37510416666666,155.49191308021545L216.49044270833335,155.38445561272758L216.58271354166666,154.91343867778778L216.60578125,154.7675919021879L216.95179687499999,155.70774171182086L217.66689583333334,155.67405154875348L217.94370833333332,155.44810903072357L218.10518229166667,155.48602533340454L218.22052083333332,155.5906827024051L218.54346875,155.7495600751468L218.751078125,156.43005987576078L219.09709375,155.72944188969475L219.35083854166666,155.5491280044828L219.5123125,155.9063337445259L219.53538020833335,156.21041629144122L219.74298958333333,155.90550481421607L220.6195625,155.73802951404025L220.688765625,156.2440563440323L220.73490104166666,156.04106489249637L220.80410416666666,156.10089773791177L220.82717187499998,155.86510499886106L220.91944270833335,155.8108952982085L221.657609375,156.21599588223864L221.98055729166668,156.49616636548723L222.60338541666667,156.2765494755336L222.74179166666667,155.92184176615308L222.83406250000002,156.44591867072242L223.24928125,156.49436894484927L223.36461979166666,155.9674123270171L223.71063541666666,156.5606707249369L223.77983854166666,156.69700212989534L223.84904166666666,156.1194400191307L224.33346354166667,156.28479943956648L224.58720833333334,156.15170414107186L224.91015625,155.82532055888856L225.14083333333335,156.70545487744468L225.21003645833332,156.13576245307922L225.30230729166666,156.0999269059726L225.69445833333333,156.03099034513747L225.74059375,156.09841609852654L225.809796875,156.09504652023315L226.29421875,156.1870484181813L226.34035416666666,156.16510049785887L226.45569270833334,156.35578303677696L226.70943749999998,156.14260885545184L226.89397916666667,156.45477089711596L226.98624999999998,156.5447997535978L227.37840104166668,156.26162919827868L227.51680729166665,156.0979482446398L227.747484375,156.2851666041783L227.79361979166666,156.5020054067884L227.93202604166666,156.21572987522399L228.04736458333332,156.48525305305208L228.162703125,156.68762678759438L228.23190625,156.41044654164995L228.577921875,156.38585119588035L228.60098958333333,156.19152698346545L229.2238177083333,156.80059453419278L229.408359375,156.54516972814287L229.63903645833332,156.66202970061983L229.89278125,156.45535021168845L230.37720312500002,156.46174280984062L230.76935416666666,156.31417541844505L230.792421875,156.25977323736464L231.53058854166667,156.7462106176785L231.55365625000002,156.539555481502L231.6920625,156.64588288749968L232.89158333333336,156.90877555949348L232.93771875000002,156.99665481703622L233.16839583333334,156.50504856450218L233.32986979166665,157.2980075137956L233.95269791666666,156.7484763605254L234.43711979166667,156.8722562619618L234.667796875,156.96506507907594L235.03688020833332,156.69124270336968L235.08301562499997,156.99272512538093L235.1291510416667,157.13115836041314L235.24448958333332,156.94525177138192L235.98265625000002,156.76445036275047L236.09799479166665,156.9892965384892L236.35173958333334,157.4426797372954L236.37480729166666,157.11461909328187L236.397875,157.0215157014983L236.467078125,157.21084244762147L236.83616145833335,157.18022260495593L237.45898958333333,157.71520158222745L237.52819270833334,157.37494489124845L237.989546875,157.1018409218107L238.12795312499998,157.34719071217944L238.15102083333332,157.25261538369315L238.75078125000002,157.00542930194308L238.91225520833333,157.150639627661L239.07372916666668,157.77178427151273L239.83496354166664,157.33046879938672L240.342453125,157.64567774534225L240.36552083333333,157.57888469525744L240.57313020833334,157.13917744159698L240.73460416666668,157.38170418569018L240.80380729166666,157.43033991541182L240.96528125,157.44085983719145L241.034484375,157.6197345682553L241.47277083333333,157.31720966100693L241.54197395833336,157.7685846941812L241.79571875000002,157.49990496465136L242.04946354166665,157.37383215767997L242.280140625,157.64512418849128L242.32627604166666,157.8754904781069L242.34934374999997,157.46475550958087L242.418546875,157.18867816243852L242.97217187500002,157.4320038642202L243.08751041666667,157.7710199696677L243.110578125,158.0566014477185L243.20284895833333,157.81831348793847L243.64113541666666,158.08627668448855L243.8718125,157.7055391584124L244.05635416666667,157.9176305787904L244.33316666666667,157.70155139480318L245.255875,157.8234172633716L245.463484375,157.76901227235794L245.48655208333335,157.7503505689757L245.62495833333332,157.9772751586778L245.67109374999998,158.1377036145755L245.878703125,158.15405836275647L246.68607291666666,157.93456229993274L247.33196875,158.10672316380908L247.40117187500002,158.30449516432626L247.47037500000002,158.22772872447968L247.67798437500002,157.90436863047736L248.32388020833335,158.1784565448761L248.87750520833333,158.1769448007856L249.10818229166668,158.06544899088996L250.37690625,158.22790528195245L250.5153125,158.13031349011828L250.60758333333334,158.16865830762046L250.6767864583333,157.99961646965573L250.93053125,158.14369720220566L251.34575,158.23873101813453L251.46108854166667,158.05969612087523L252.1761875,158.04632739509856L252.29152604166666,158.15639107567924L252.31459375,158.02972068956922L252.36072916666666,158.09449667590005L252.63754166666666,158.0057908296585L252.68367708333335,158.13327656473433L252.96048958333336,158.45412364176343L253.19116666666665,158.4170943413462L253.491046875,158.12512494836534L253.60638541666668,158.30339648042406L253.629453125,157.798100233078L253.97546875,158.31946742534637L254.113875,158.38594529458453L254.34455208333333,158.21746731655938L254.8981770833333,158.36818417481015L255.290328125,158.1904713511467L255.4748697916667,158.24778181314468L255.79781770833335,158.44205404179436L256.5129166666667,158.46082064935138L256.674390625,158.18627331086566L256.74359375,158.58301809004377L256.9281354166667,158.35661661624908L257.29721875,158.5798817362104L257.38948958333333,158.51517178331102L257.504828125,158.77673301526477L257.55096354166665,158.09535745212008L257.59709895833333,158.17905599730355L257.66630208333333,158.67591495173318L258.473671875,158.4062161530767L258.612078125,158.52606261628014L258.63514583333335,158.78430906363894L258.79661979166667,158.3297499077661L259.0042291666667,158.72225168773105L259.2579739583333,158.63151238645827L259.4655833333333,158.52873767273766L259.7423958333333,158.6528182370322L260.11147916666664,158.6499188542366L260.1576145833333,158.7759865096637L260.18068229166664,158.3899026172502L260.22681770833333,158.93754315376282L260.36522395833333,158.53472985540117L260.45749479166665,158.6353877527373L260.57283333333334,158.4982672248568L260.71123958333334,158.6087875195912L260.826578125,158.87481326716286L260.87271354166666,158.78774186543058" style="fill: none;" fill="none"></path></g></g></g></g></g></g><g transform="translate(53, 176)" clip-path="url(#clip_1)"><clipPath id="clip_1"><rect width="276" height="24"></rect></clipPath><g><g><line x1="0" y1="0" x2="0" y2="5" style="visibility: inherit;" fill="rgb(0, 0, 0)" stroke="rgb(204, 204, 204)" stroke-width="1px"></line><line x1="23.067708333333332" y1="0" x2="23.067708333333332" y2="5" style="visibility: inherit;" fill="rgb(0, 0, 0)" stroke="rgb(204, 204, 204)" stroke-width="1px"></line><line x1="46.135416666666664" y1="0" x2="46.135416666666664" y2="5" style="visibility: inherit;" fill="rgb(0, 0, 0)" stroke="rgb(204, 204, 204)" stroke-width="1px"></line><line x1="69.203125" y1="0" x2="69.203125" y2="5" style="visibility: inherit;" fill="rgb(0, 0, 0)" stroke="rgb(204, 204, 204)" stroke-width="1px"></line><line x1="92.27083333333333" y1="0" x2="92.27083333333333" y2="5" style="visibility: inherit;" fill="rgb(0, 0, 0)" stroke="rgb(204, 204, 204)" stroke-width="1px"></line><line x1="115.33854166666667" y1="0" x2="115.33854166666667" y2="5" style="visibility: inherit;" fill="rgb(0, 0, 0)" stroke="rgb(204, 204, 204)" stroke-width="1px"></line><line x1="138.40625" y1="0" x2="138.40625" y2="5" style="visibility: inherit;" fill="rgb(0, 0, 0)" stroke="rgb(204, 204, 204)" stroke-width="1px"></line><line x1="161.47395833333334" y1="0" x2="161.47395833333334" y2="5" style="visibility: inherit;" fill="rgb(0, 0, 0)" stroke="rgb(204, 204, 204)" stroke-width="1px"></line><line x1="184.54166666666666" y1="0" x2="184.54166666666666" y2="5" style="visibility: inherit;" fill="rgb(0, 0, 0)" stroke="rgb(204, 204, 204)" stroke-width="1px"></line><line x1="207.609375" y1="0" x2="207.609375" y2="5" style="visibility: inherit;" fill="rgb(0, 0, 0)" stroke="rgb(204, 204, 204)" stroke-width="1px"></line><line x1="230.67708333333334" y1="0" x2="230.67708333333334" y2="5" style="visibility: inherit;" fill="rgb(0, 0, 0)" stroke="rgb(204, 204, 204)" stroke-width="1px"></line><line x1="253.74479166666666" y1="0" x2="253.74479166666666" y2="5" style="visibility: inherit;" fill="rgb(0, 0, 0)" stroke="rgb(204, 204, 204)" stroke-width="1px"></line><line x1="276.8125" y1="0" x2="276.8125" y2="5" style="visibility: inherit;" fill="rgb(0, 0, 0)" stroke="rgb(204, 204, 204)" stroke-width="1px"></line></g><g transform="translate(0, 8)"><text x="0" y="0" dx="0em" dy="0.95em" style="text-anchor: middle; visibility: hidden; font-family: Roboto, sans-serif; font-size: 12px; font-weight: 200;" fill="rgb(33, 33, 33)" stroke="none" stroke-width="1px">-100k</text><text x="23.067708333333332" y="0" dx="0em" dy="0.95em" style="text-anchor: middle; visibility: inherit; font-family: Roboto, sans-serif; font-size: 12px; font-weight: 200;" fill="rgb(33, 33, 33)" stroke="none" stroke-width="1px">0</text><text x="46.135416666666664" y="0" dx="0em" dy="0.95em" style="text-anchor: middle; visibility: hidden; font-family: Roboto, sans-serif; font-size: 12px; font-weight: 200;" fill="rgb(33, 33, 33)" stroke="none" stroke-width="1px">100k</text><text x="69.203125" y="0" dx="0em" dy="0.95em" style="text-anchor: middle; visibility: inherit; font-family: Roboto, sans-serif; font-size: 12px; font-weight: 200;" fill="rgb(33, 33, 33)" stroke="none" stroke-width="1px">200k</text><text x="92.27083333333333" y="0" dx="0em" dy="0.95em" style="text-anchor: middle; visibility: hidden; font-family: Roboto, sans-serif; font-size: 12px; font-weight: 200;" fill="rgb(33, 33, 33)" stroke="none" stroke-width="1px">300k</text><text x="115.33854166666667" y="0" dx="0em" dy="0.95em" style="text-anchor: middle; visibility: inherit; font-family: Roboto, sans-serif; font-size: 12px; font-weight: 200;" fill="rgb(33, 33, 33)" stroke="none" stroke-width="1px">400k</text><text x="138.40625" y="0" dx="0em" dy="0.95em" style="text-anchor: middle; visibility: hidden; font-family: Roboto, sans-serif; font-size: 12px; font-weight: 200;" fill="rgb(33, 33, 33)" stroke="none" stroke-width="1px">500k</text><text x="161.47395833333334" y="0" dx="0em" dy="0.95em" style="text-anchor: middle; visibility: inherit; font-family: Roboto, sans-serif; font-size: 12px; font-weight: 200;" fill="rgb(33, 33, 33)" stroke="none" stroke-width="1px">600k</text><text x="184.54166666666666" y="0" dx="0em" dy="0.95em" style="text-anchor: middle; visibility: hidden; font-family: Roboto, sans-serif; font-size: 12px; font-weight: 200;" fill="rgb(33, 33, 33)" stroke="none" stroke-width="1px">700k</text><text x="207.609375" y="0" dx="0em" dy="0.95em" style="text-anchor: middle; visibility: inherit; font-family: Roboto, sans-serif; font-size: 12px; font-weight: 200;" fill="rgb(33, 33, 33)" stroke="none" stroke-width="1px">800k</text><text x="230.67708333333334" y="0" dx="0em" dy="0.95em" style="text-anchor: middle; visibility: hidden; font-family: Roboto, sans-serif; font-size: 12px; font-weight: 200;" fill="rgb(33, 33, 33)" stroke="none" stroke-width="1px">900k</text><text x="253.74479166666666" y="0" dx="0em" dy="0.95em" style="text-anchor: middle; visibility: inherit; font-family: Roboto, sans-serif; font-size: 12px; font-weight: 200;" fill="rgb(33, 33, 33)" stroke="none" stroke-width="1px">1M</text><text x="276.8125" y="0" dx="0em" dy="0.95em" style="text-anchor: middle; visibility: hidden; font-family: Roboto, sans-serif; font-size: 12px; font-weight: 200;" fill="rgb(33, 33, 33)" stroke="none" stroke-width="1px">1.1M</text></g><line x1="0" y1="0" x2="276.8125" y2="0" fill="rgb(0, 0, 0)" stroke="rgb(204, 204, 204)" stroke-width="1px"></line></g></g></g></g></svg>