<svg viewBox="0 0 330 200" xmlns="http://www.w3.org/2000/svg"><g><g><g><g><g><line x1="51.5625" y1="177" x2="46.5625" y2="177" style="visibility: inherit;" fill="rgb(0, 0, 0)" stroke="rgb(204, 204, 204)" stroke-width="1px"></line><line x1="51.5625" y1="159.3" x2="46.5625" y2="159.3" style="visibility: inherit;" fill="rgb(0, 0, 0)" stroke="rgb(204, 204, 204)" stroke-width="1px"></line><line x1="51.5625" y1="141.6" x2="46.5625" y2="141.6" style="visibility: inherit;" fill="rgb(0, 0, 0)" stroke="rgb(204, 204, 204)" stroke-width="1px"></line><line x1="51.5625" y1="123.89999999999999" x2="46.5625" y2="123.89999999999999" style="visibility: inherit;" fill="rgb(0, 0, 0)" stroke="rgb(204, 204, 204)" stroke-width="1px"></line><line x1="51.5625" y1="106.2" x2="46.5625" y2="106.2" style="visibility: inherit;" fill="rgb(0, 0, 0)" stroke="rgb(204, 204, 204)" stroke-width="1px"></line><line x1="51.5625" y1="88.5" x2="46.5625" y2="88.5" style="visibility: inherit;" fill="rgb(0, 0, 0)" stroke="rgb(204, 204, 204)" stroke-width="1px"></line><line x1="51.5625" y1="70.8" x2="46.5625" y2="70.8" style="visibility: inherit;" fill="rgb(0, 0, 0)" stroke="rgb(204, 204, 204)" stroke-width="1px"></line><line x1="51.5625" y1="53.10000000000001" x2="46.5625" y2="53.10000000000001" style="visibility: inherit;" fill="rgb(0, 0, 0)" stroke="rgb(204, 204, 204)" stroke-width="1px"></line><line x1="51.5625" y1="35.40000000000001" x2="46.5625" y2="35.40000000000001" style="visibility: inherit;" fill="rgb(0, 0, 0)" stroke="rgb(204, 204, 204)" stroke-width="1px"></line><line x1="51.5625" y1="17.699999999999996" x2="46.5625" y2="17.699999999999996" style="visibility: inherit;" fill="rgb(0, 0, 0)" stroke="rgb(204, 204, 204)" stroke-width="1px"></line><line x1="51.5625" y1="0" x2="46.5625" y2="0" style="visibility: inherit;" fill="rgb(0, 0, 0)" stroke="rgb(204, 204, 204)" stroke-width="1px"></line></g><g transform="translate(41.5625, 0)"><text x="0" y="177" dx="0em" dy="0.3em" style="text-anchor: end; visibility: hidden; font-family: Roboto, sans-serif; font-size: 12px; font-weight: 200;" fill="rgb(33, 33, 33)" stroke="none" stroke-width="1px">-0.2</text><text x="0" y="159.3" dx="0em" dy="0.3em" style="text-anchor: end; visibility: inherit; font-family: Roboto, sans-serif; font-size: 12px; font-weight: 200;" fill="rgb(33, 33, 33)" stroke="none" stroke-width="1px">0</text><text x="0" y="141.6" dx="0em" dy="0.3em" style="text-anchor: end; visibility: hidden; font-family: Roboto, sans-serif; font-size: 12px; font-weight: 200;" fill="rgb(33, 33, 33)" stroke="none" stroke-width="1px">0.2</text><text x="0" y="123.89999999999999" dx="0em" dy="0.3em" style="text-anchor: end; visibility: inherit; font-family: Roboto, sans-serif; font-size: 12px; font-weight: 200;" fill="rgb(33, 33, 33)" stroke="none" stroke-width="1px">0.4</text><text x="0" y="106.2" dx="0em" dy="0.3em" style="text-anchor: end; visibility: hidden; font-family: Roboto, sans-serif; font-size: 12px; font-weight: 200;" fill="rgb(33, 33, 33)" stroke="none" stroke-width="1px">0.6</text><text x="0" y="88.5" dx="0em" dy="0.3em" style="text-anchor: end; visibility: inherit; font-family: Roboto, sans-serif; font-size: 12px; font-weight: 200;" fill="rgb(33, 33, 33)" stroke="none" stroke-width="1px">0.8</text><text x="0" y="70.8" dx="0em" dy="0.3em" style="text-anchor: end; visibility: hidden; font-family: Roboto, sans-serif; font-size: 12px; font-weight: 200;" fill="rgb(33, 33, 33)" stroke="none" stroke-width="1px">1</text><text x="0" y="53.10000000000001" dx="0em" dy="0.3em" style="text-anchor: end; visibility: inherit; font-family: Roboto, sans-serif; font-size: 12px; font-weight: 200;" fill="rgb(33, 33, 33)" stroke="none" stroke-width="1px">1.2</text><text x="0" y="35.40000000000001" dx="0em" dy="0.3em" style="text-anchor: end; visibility: hidden; font-family: Roboto, sans-serif; font-size: 12px; font-weight: 200;" fill="rgb(33, 33, 33)" stroke="none" stroke-width="1px">1.4</text><text x="0" y="17.699999999999996" dx="0em" dy="0.3em" style="text-anchor: end; visibility: inherit; font-family: Roboto, sans-serif; font-size: 12px; font-weight: 200;" fill="rgb(33, 33, 33)" stroke="none" stroke-width="1px">1.6</text><text x="0" y="0" dx="0em" dy="0.3em" style="text-anchor: end; visibility: hidden; font-family: Roboto, sans-serif; font-size: 12px; font-weight: 200;" fill="rgb(33, 33, 33)" stroke="none" stroke-width="1px">1.8</text></g><line x1="51.5625" y1="0" x2="51.5625" y2="177" fill="rgb(0, 0, 0)" stroke="rgb(204, 204, 204)" stroke-width="1px"></line></g></g><g transform="translate(51, 0)" clip-path="url(#clip_0)"><clipPath id="clip_0"><rect width="278" height="177"></rect></clipPath><g><g><g><line x1="0" y1="0" x2="0" y2="177" fill="rgb(0, 0, 0)" stroke="rgb(66, 66, 66)" stroke-width="1px" opacity="0.25"></line><line x1="19.888392857142858" y1="0" x2="19.888392857142858" y2="177" fill="rgb(0, 0, 0)" stroke="rgb(66, 66, 66)" stroke-width="1px" opacity="0.25"></line><line x1="39.776785714285715" y1="0" x2="39.776785714285715" y2="177" fill="rgb(0, 0, 0)" stroke="rgb(66, 66, 66)" stroke-width="1px" opacity="0.25"></line><line x1="59.66517857142857" y1="0" x2="59.66517857142857" y2="177" fill="rgb(0, 0, 0)" stroke="rgb(66, 66, 66)" stroke-width="1px" opacity="0.25"></line><line x1="79.55357142857143" y1="0" x2="79.55357142857143" y2="177" fill="rgb(0, 0, 0)" stroke="rgb(66, 66, 66)" stroke-width="1px" opacity="0.25"></line><line x1="99.44196428571429" y1="0" x2="99.44196428571429" y2="177" fill="rgb(0, 0, 0)" stroke="rgb(66, 66, 66)" stroke-width="1px" opacity="0.25"></line><line x1="119.33035714285714" y1="0" x2="119.33035714285714" y2="177" fill="rgb(0, 0, 0)" stroke="rgb(66, 66, 66)" stroke-width="1px" opacity="0.25"></line><line x1="139.21875" y1="0" x2="139.21875" y2="177" fill="rgb(0, 0, 0)" stroke="rgb(66, 66, 66)" stroke-width="1px" opacity="0.25"></line><line x1="159.10714285714286" y1="0" x2="159.10714285714286" y2="177" fill="rgb(0, 0, 0)" stroke="rgb(66, 66, 66)" stroke-width="1px" opacity="0.25"></line><line x1="178.99553571428572" y1="0" x2="178.99553571428572" y2="177" fill="rgb(0, 0, 0)" stroke="rgb(66, 66, 66)" stroke-width="1px" opacity="0.25"></line><line x1="198.88392857142858" y1="0" x2="198.88392857142858" y2="177" fill="rgb(0, 0, 0)" stroke="rgb(66, 66, 66)" stroke-width="1px" opacity="0.25"></line><line x1="218.77232142857142" y1="0" x2="218.77232142857142" y2="177" fill="rgb(0, 0, 0)" stroke="rgb(66, 66, 66)" stroke-width="1px" opacity="0.25"></line><line x1="238.66071428571428" y1="0" x2="238.66071428571428" y2="177" fill="rgb(0, 0, 0)" stroke="rgb(66, 66, 66)" stroke-width="1px" opacity="0.25"></line><line x1="258.54910714285717" y1="0" x2="258.54910714285717" y2="177" fill="rgb(0, 0, 0)" stroke="rgb(66, 66, 66)" stroke-width="1px" opacity="0.25"></line><line x1="278.4375" y1="0" x2="278.4375" y2="177" fill="rgb(0, 0, 0)" stroke="rgb(66, 66, 66)" stroke-width="1px" opacity="0.25"></line></g><g><line x1="0" y1="177" x2="278.4375" y2="177" fill="rgb(0, 0, 0)" stroke="rgb(66, 66, 66)" stroke-width="1px" opacity="0.25"></line><line x1="0" y1="159.3" x2="278.4375" y2="159.3" fill="rgb(0, 0, 0)" stroke="rgb(66, 66, 66)" stroke-width="1px" opacity="0.25"></line><line x1="0" y1="141.6" x2="278.4375" y2="141.6" fill="rgb(0, 0, 0)" stroke="rgb(66, 66, 66)" stroke-width="1px" opacity="0.25"></line><line x1="0" y1="123.89999999999999" x2="278.4375" y2="123.89999999999999" fill="rgb(0, 0, 0)" stroke="rgb(66, 66, 66)" stroke-width="1px" opacity="0.25"></line><line x1="0" y1="106.2" x2="278.4375" y2="106.2" fill="rgb(0, 0, 0)" stroke="rgb(66, 66, 66)" stroke-width="1px" opacity="0.25"></line><line x1="0" y1="88.5" x2="278.4375" y2="88.5" fill="rgb(0, 0, 0)" stroke="rgb(66, 66, 66)" stroke-width="1px" opacity="0.25"></line><line x1="0" y1="70.8" x2="278.4375" y2="70.8" fill="rgb(0, 0, 0)" stroke="rgb(66, 66, 66)" stroke-width="1px" opacity="0.25"></line><line x1="0" y1="53.10000000000001" x2="278.4375" y2="53.10000000000001" fill="rgb(0, 0, 0)" stroke="rgb(66, 66, 66)" stroke-width="1px" opacity="0.25"></line><line x1="0" y1="35.40000000000001" x2="278.4375" y2="35.40000000000001" fill="rgb(0, 0, 0)" stroke="rgb(66, 66, 66)" stroke-width="1px" opacity="0.25"></line><line x1="0" y1="17.699999999999996" x2="278.4375" y2="17.699999999999996" fill="rgb(0, 0, 0)" stroke="rgb(66, 66, 66)" stroke-width="1px" opacity="0.25"></line><line x1="0" y1="0" x2="278.4375" y2="0" fill="rgb(0, 0, 0)" stroke="rgb(66, 66, 66)" stroke-width="1px" opacity="0.25"></line></g></g></g><g><g><line x1="0" y1="159.3" x2="278.4375" y2="159.3" fill="rgb(0, 0, 0)" stroke="rgb(153, 153, 153)" stroke-width="1.5px"></line></g></g><g><g><line x1="19.888392857142858" y1="0" x2="19.888392857142858" y2="177" fill="rgb(0, 0, 0)" stroke="rgb(153, 153, 153)" stroke-width="1.5px"></line></g></g><g><g><g><g><g><path stroke="rgb(255, 112, 67)" stroke-width="2px" d="M34.10859375,-0.0247039318084874L34.26770089285714,1.1621102571487465L34.42680803571429,3.3836495161056557L34.86435267857143,2.3976971983909645L34.94390625,8.734610188007359L35.122901785714284,6.955496656894688L35.20245535714285,11.708587574958806L35.24223214285715,9.635539877414708L35.520669642857136,14.015339362621312L35.56044642857143,8.30509768724442L35.65988839285714,9.937080609798436L35.69966517857143,10.841512906551365L35.85877232142857,13.66283147335053L35.97810267857143,17.20109789371491L35.99799107142857,16.063045907020573L36.45542410714285,17.86989544630051L36.53497767857143,16.81178097724915L37.94705357142857,25.82235442399979L37.98683035714286,27.677723515033726L38.64314732142857,29.633834767341618L38.7028125,32.139992523193364L39.040915178571424,31.300485062599186L39.21991071428571,34.63995741605759L39.23979910714286,33.961432743072514L39.359129464285715,35.6136295080185L39.379017857142856,34.997940766811375L39.47845982142857,37.34683989286423L39.836450892857144,37.782133805751805L39.89611607142857,34.692433226108555L40.07511160714286,38.66907416582108L41.04964285714286,44.766206252574925L41.109308035714285,44.07004194259644L41.22863839285714,45.284138488769536L41.34796875,44.73330073356629L41.447410714285716,44.54009817838669L41.64629464285714,47.40061007738114L41.765625,49.97463612556458L41.86506696428572,49.765302586555485L42.899263392857144,50.9035128235817L42.99870535714285,50.6238422870636L43.01859375,49.63503091335297L43.37658482142857,53.039322602748875L43.63513392857143,52.95447932481766L43.89368303571428,55.96223788261414L44.649441964285714,58.84632908105851L44.927879464285716,57.88014750480652L44.98754464285714,58.70656238794327L45.385312500000005,58.2767017364502L45.504642857142855,62.05467520952225L45.64386160714285,61.608915674686436L46.08140625,61.092956292629246L46.14107142857142,62.48772196769715L46.35984375,64.80403207540512L46.419508928571425,62.94094036817551L46.47917410714285,65.8912857055664L46.4990625,61.4561513543129L47.45370535714286,70.38512037992477L47.57303571428571,66.10315124988556L47.592924107142856,68.55151598453521L48.03046875,70.50066422224045L48.26912946428571,67.93839089870453L48.468013392857145,71.82587887644767L49.06466517857143,71.35409243702888L49.2834375,71.31573783159256L49.44254464285714,74.06008343696594L49.561875,72.67590998411178L50.198303571428575,73.12449692487716L50.277857142857144,71.83218251466751L50.77506696428571,75.7289228618145L51.09328125,77.02427567839622L51.113169642857144,76.52490620613098L51.41149553571428,76.14549048542976L51.491049107142864,77.04975925683975L51.82915178571429,79.3014663040638L52.525245535714284,80.60991697311401L52.68435267857143,81.20885227918625L53.08212053571429,80.13909058570862L53.360558035714284,83.0062015235424L53.53955357142857,83.5538004219532L53.658883928571434,82.95925920009613L53.698660714285715,82.14790974855423L53.75832589285714,81.87608315348625L53.89754464285714,83.89950882196426L54.07654017857143,83.51759274601936L54.35497767857142,84.38472543954849L54.39475446428572,82.96336315870285L54.45441964285714,83.25106226205826L54.613526785714285,85.3133911371231L54.633415178571425,86.99189438223839L55.031183035714285,86.70462255477905L55.21017857142857,84.53408210277557L55.32950892857143,87.96603595018387L55.488616071428574,87.66348769068718L55.66761160714286,86.99163063168525L55.80683035714286,86.80875654816627L56.22448660714286,89.72973589897155L56.50292410714286,87.51898403763771L56.58247767857143,88.35399191379547L56.761473214285715,89.06205664873123L57.02002232142857,89.31182842254638L57.0796875,88.80819146633148L57.199017857142856,87.90159114003181L57.238794642857144,89.27577899694442L58.034330357142856,88.9598849594593L58.37243303571428,91.40666191577911L58.571316964285714,90.43215109705925L58.63098214285714,92.66015751957893L59.028749999999995,93.1524954020977L59.3071875,91.20720319747925L59.346964285714286,91.41462718248367L59.70495535714286,94.60972248315811L59.78450892857143,93.232796895504L59.943616071428565,94.73819537758827L60.281718749999996,95.07907186746597L60.40104910714285,95.83414750099182L60.87837053571428,96.79195235967636L61.136919642857144,98.0929336130619L61.19658482142857,96.78398181796074L61.21647321428571,96.6741771876812L61.37558035714285,95.64659975767135L61.45513392857143,95.42841475009918L61.59435267857143,97.71502127051353L61.89267857142857,97.82481535077095L62.56888392857143,97.7630924463272L62.6484375,99.07667570114135L62.787656250000005,98.29826341867447L62.966651785714284,99.99698050618171L63.404196428571424,100.64987390041351L63.48375,98.57105006575584L63.64285714285714,100.54751231074333L63.801964285714284,100.64448283910751L63.88151785714285,100.3728303194046L64.2792857142857,100.41600628495216L64.37872767857142,101.87062751054764L64.39861607142858,102.17758040428161L64.43839285714286,101.69200508594513L64.4980580357143,102.18350424170494L64.73671875000001,101.18972380757332L64.79638392857143,103.0872402369976L64.89582589285715,100.74676002860069L65.27370535714286,102.0805571258068L65.47258928571429,102.8232206583023L65.59191964285715,101.43735920190811L65.71124999999999,102.10249589681625L65.79080357142857,103.3463065803051L66.02946428571428,103.97163804173469L66.5465625,103.04452847242355L66.72555803571429,105.41215388774872L67.42165178571429,106.591139960289L67.44154017857143,104.1656160235405L67.48131696428571,105.22612007260322L68.35640624999999,105.65713595151901L68.51551339285714,105.06092782616615L68.69450892857142,107.47606526613235L68.73428571428572,105.63272847533226L68.83372767857144,107.15441091656685L69.3309375,108.07149268984794L69.35082589285715,108.16587846279144L69.54970982142856,107.82985498309135L69.58948660714286,108.25320627093315L69.68892857142858,108.89704774618149L69.96736607142857,108.56246961951256L70.08669642857143,108.56096624135971L70.26569196428571,108.65038295388221L70.56401785714286,108.54206060171127L70.64357142857143,108.78153027892112L70.68334821428572,109.84287305474281L71.18055803571428,109.2687725007534L71.61810267857143,111.91095696687698L71.73743303571428,110.88197110891342L72.0755357142857,111.6432237803936L72.19486607142858,111.68074493408203L72.71196428571427,110.45983834862709L73.16939732142858,113.06457023620605L73.30861607142857,111.41277437210083L73.40805803571428,111.51188655495643L73.66660714285715,112.84585245251655L73.80582589285714,112.94887341856956L74.10415178571428,112.07634966373443L74.34281250000001,113.61206890940666L74.40247767857143,115.13441600203514L74.68091517857144,114.17119370698929L75.37700892857144,114.25040854811668L75.39689732142857,114.09541289806366L75.41678571428571,113.44086842536926L76.07310267857142,114.97931485176086L77.02774553571429,116.26396994590759L77.20674107142858,116.51928311884403L77.38573660714286,115.2559733569622L77.50506696428572,115.58032587468624L77.92272321428571,116.53676714301109L77.98238839285715,117.32962504327297L78.91714285714285,116.4932008266449L79.07624999999999,118.92056837975979L79.53368303571429,116.99005148112774L79.79223214285715,119.29245402216911L80.11044642857142,118.93010032474994L80.17011160714286,118.2045753031969L80.32921875,119.87015213370323L80.38888392857143,118.05458563864231L80.86620535714286,119.2020429700613L80.94575892857142,119.0247524857521L81.54241071428572,121.73351550400257L81.99984375,119.90987296700477L82.29816964285715,120.50631055533886L82.65616071428572,121.53638306558132L82.77549107142856,122.23214647471904L83.09370535714285,121.0831593900919L83.45169642857142,122.65132522881031L83.47158482142856,122.60972121655941L84.14779017857143,123.30300273299217L84.34667410714286,123.07117390930652L84.4063392857143,121.96716948151588L84.42622767857142,121.95875056385994L84.46600446428572,123.16501371860504L84.48589285714286,121.58291657567024L84.98310267857143,123.25100431144237L85.63941964285713,123.57677580714225L86.09685267857142,123.2278839379549L86.43495535714285,125.06133272051811L87.0514955357143,125.04009288847446L87.58848214285715,124.31582331955433L87.68792410714286,125.69578467607498L88.12546875,125.50716083049774L88.28457589285713,124.86282614171505L88.50334821428571,125.5597790658474L88.543125,125.49258597493171L88.68234375,124.88859193325042L88.80167410714286,125.24622449576854L89.11988839285713,126.00478427410125L89.45799107142857,125.17373001873493L89.69665178571428,126.42455646693706L89.75631696428572,126.72417182028293L90.25352678571429,126.97842471599579L90.37285714285714,126.48703369796276L90.77062500000001,125.81403196156025L91.10872767857144,127.30509032607078L91.50649553571428,127.9732232272625L91.86448660714285,128.59478305578233L91.90426339285715,127.33106711804867L91.94404017857144,128.44855711162091L92.06337053571428,127.01699823439121L92.40147321428572,128.23549677729608L92.62024553571428,127.6159045279026L92.89868303571428,128.7229526370764L94.01243303571428,128.4104055941105L94.09198660714286,129.08426188230516L94.25109375000001,129.23430165946485L94.31075892857142,129.10066980421544L94.92729910714286,129.4095744520426L95.08640625000001,129.43448832929136L95.34495535714285,130.470851290226L95.44439732142858,130.8338564515114L95.76261160714286,130.1096739202738L95.86205357142858,130.49722107052804L95.90183035714286,129.61257270276548L96.10071428571429,129.75105229318143L96.18026785714285,130.0474578022957L96.75703125,131.13383050560952L96.85647321428571,130.36425386667253L96.99569196428571,129.96034363210202L98.02988839285715,132.1255273103714L98.16910714285714,131.2296642690897L98.24866071428572,131.62596002519132L98.4674330357143,131.58080593049527L98.58676339285715,131.8476740151644L98.70609375,131.70538850426675L99.14363839285716,131.32413180470468L99.46185267857143,131.53152413964273L99.64084821428573,132.33988529741765L99.66073660714285,132.2297931790352L99.89939732142857,132.07115513384343L100.11816964285715,133.03315098881723L100.17783482142856,132.05945515930654L101.31147321428573,133.23057882785798L101.41091517857143,134.1260145932436L101.43080357142857,133.66297412216664L101.6296875,133.72171664536L103.08154017857143,133.67295444309713L103.3003125,133.64196375310422L103.32020089285714,134.9363855302334L103.35997767857143,134.14095078706742L103.3997544642857,133.8890162587166L103.45941964285714,133.77954131662847L103.4793080357143,134.13107332885266L103.97651785714287,133.5656106054783L104.07595982142857,135.0067146152258L104.135625,134.22290335893632L104.29473214285714,134.27823822498323L104.6925,134.29627348780633L104.75216517857143,134.69935554564L104.77205357142857,135.18733099400998L105.07037946428571,134.65287214815618L105.38859375,134.59151058197023L105.50792410714286,135.11088289618493L105.58747767857143,135.23724578619004L105.76647321428571,135.4282882243395L105.80625,135.00078022778035L106.06479910714286,134.80153514742852L106.28357142857143,135.80888818502427L106.80066964285714,136.16367751657964L106.97966517857144,136.3788214802742L107.27799107142857,136.19338637888433L107.41720982142857,135.1020604401827L107.53654017857143,135.60223171412946L107.61609375,135.81269410550595L108.01386160714287,137.35356835573913L108.07352678571428,136.4938430964947L108.90883928571428,137.155371683836L109.24694196428571,136.51798154711724L109.58504464285714,136.53529149591924L109.60493303571428,137.52199550271035L109.98281250000001,137.12814998924733L110.00270089285715,137.006695497036L110.06236607142857,136.6956729322672L110.24136160714285,135.92192375957967L110.46013392857144,137.2974013566971L110.95734375,137.05647313892842L111.01700892857141,137.03137991130353L111.23578125,137.43502375781537L111.29544642857142,138.06145110279323L111.33522321428572,137.47723835259677L111.375,137.4539953351021L111.95176339285715,137.87739014178516L112.50863839285715,137.74582477211953L112.66774553571429,138.39713830053807L112.74729910714285,138.4032850071788L112.90640625,138.87485385239125L113.12517857142858,138.20519251674415L113.64227678571429,138.64144780039788L113.74171874999999,137.65453015565873L114.05993303571428,138.89589850902559L114.37814732142857,139.05096669048072L114.53725446428572,139.02943277657033L114.71624999999999,138.74057185202838L114.89524553571428,139.24428793340923L115.11401785714285,138.84096850007774L115.13390625,137.9598359271884L115.25323660714285,139.0994717359543L115.37256696428572,139.6672950267792L115.41234374999999,139.26505960822107L115.47200892857143,139.82398263663055L116.16810267857143,139.68507445156575L116.40676339285714,139.28572578281165L116.78464285714286,140.47893460392953L117.24207589285714,139.37711007446052L117.63984375,140.27078662365676L118.11716517857143,139.855966347456L118.43537946428572,140.0337210327387L118.59448660714285,140.385663177073L118.77348214285713,140.3229103267193L118.83314732142857,140.3882782638073L118.87292410714286,141.43652450591327L119.88723214285713,141.3512921959162L119.94689732142857,141.79092084914447L120.34466517857143,140.9859937235713L120.38444196428573,141.21048500686885L120.40433035714285,140.65897996276618L120.54354910714287,140.67055729329587L120.90154017857142,141.17179148197175L121.45841517857143,141.0920715585351L121.8561830357143,141.65505898296834L121.89595982142858,142.21869127750398L122.01529017857143,141.56319202780725L122.53238839285714,141.70322379022838L122.63183035714286,141.15134817659856L122.96993303571429,141.40253892838956L123.32792410714286,141.45073538571597L123.48703125,141.82507918328048L124.10357142857143,142.70655463188888L124.64055803571428,142.53778856545688L125.09799107142857,142.01845449507238L125.67475446428571,141.92473073601724L125.89352678571429,142.41382712423803L126.21174107142858,142.3639835447073L126.49017857142857,142.54977998435498L126.51006696428571,142.28255188018085L126.90783482142858,142.79761187285186L127.70337053571428,142.4727806478739L128.14091517857142,143.4120675802231L128.24035714285714,143.22765978723766L128.97622767857143,143.5277709916234L129.11544642857143,142.94993177354337L129.195,143.607592459023L129.31433035714286,143.40652354359628L129.4336607142857,143.1867217451334L129.59276785714286,143.9388578787446L129.63254464285714,143.4389147490263L130.10986607142857,144.15670528560878L130.26897321428572,144.37045664638282L130.74629464285715,144.81888797432185L130.98495535714287,144.11702665239574L131.02473214285715,143.80461016595365L131.1440625,143.74442492723466L131.3827232142857,144.03996137827636L131.8799330357143,143.9334443986416L132.43680803571428,144.18658031076194L132.4765848214286,144.56957776397468L132.55613839285715,144.36805256009103L132.8544642857143,144.58902277350427L133.66988839285716,144.50621828734876L133.72955357142857,144.79402948468925L134.08754464285715,145.15835999250413L134.4455357142857,144.85565480142833L134.78363839285714,144.99697234779597L134.84330357142858,144.7125437512994L134.9427455357143,145.33979004174472L135.04218749999998,145.33682416677476L135.40017857142857,144.75564059168101L135.42006696428572,144.79638741463424L135.75816964285713,145.4204568296671L135.81783482142856,145.5240000218153L135.95705357142856,144.91672228574754L136.49404017857142,145.4593850925565L136.53381696428573,144.97212177067996L136.67303571428573,145.86043627113105L137.21002232142857,145.67784044444562L137.38901785714285,145.6685260936618L137.58790178571428,145.9366390809417L137.80667410714287,145.7850906506181L138.2839955357143,145.73656582385303L138.38343749999999,145.47933518439532L138.50276785714286,145.76663338690997L139.03975446428572,145.6294712305069L139.43752232142856,146.2097620099783L139.53696428571428,145.80796573609115L139.83529017857143,146.1736070841551L139.93473214285714,146.59897870123388L140.4319419642857,145.8337710902095L140.78993303571428,146.08454907238485L140.86948660714285,146.53149152845145L140.9689285714286,145.92805400043727L141.28714285714287,146.54957690387965L141.32691964285715,146.57311136573554L141.64513392857143,146.5856922671199L141.68491071428573,146.54711874872447L141.80424107142855,146.17425459176303L141.84401785714286,146.59676451534034L141.88379464285714,146.344135004282L142.12245535714285,146.44311135560275L142.20200892857142,146.43655583560468L142.65944196428572,146.66452466994525L142.8384375,147.41562162637712L142.89810267857143,146.54902434647084L143.2163169642857,146.5375986725092L143.43508928571427,146.89436745196582L143.47486607142855,146.81343955099584L143.59419642857142,146.89095188230277L143.8527455357143,146.5821593284607L144.21073660714285,147.04501253664495L144.98638392857143,146.98380262702705L145.4438169642857,146.77607928514482L145.5233705357143,147.21716779768468L145.54325892857142,146.72867276072503L145.68247767857144,146.99452672451736L146.02058035714288,146.99507928192617L146.23935267857144,147.13037012815477L146.458125,147.1815997168422L146.59734375,147.48287801742555L146.71667410714286,146.8807526484132L147.1939955357143,147.4511211320758L148.28785714285715,147.51997453272344L148.3674107142857,147.7407522082329L148.62595982142858,148.0752854973078L148.9242857142857,147.74294925034047L149.08339285714288,147.77276229411365L149.10328124999998,147.49620137661697L149.18283482142857,147.5371354624629L149.38171875,147.59543356597425L149.58060267857144,148.08901766985656L149.60049107142856,148.3931886546314L149.62037946428572,147.9034084931016L149.77948660714284,148.18373444974424L150.1772544642857,147.79792937189342L150.65457589285714,147.89183116257192L150.79379464285714,148.07010279893876L150.85345982142857,148.1141240850091L151.05234375,148.09819882661105L151.23133928571428,148.56877135410906L151.48988839285713,148.30966808572413L151.58933035714287,148.02831811755897L152.3053125,148.0316611558199L152.48430803571426,148.3509048253298L152.52408482142857,147.99876750558616L152.60363839285714,148.22838214337827L152.72296875,148.30118454918266L152.7826339285714,148.54307215958835L152.92185267857144,148.1463253900409L153.0809598214286,148.57564799040557L153.140625,148.64508362039925L153.29973214285715,148.46216799616815L153.37928571428571,148.57192053571345L153.91627232142858,148.54682994559408L153.99582589285714,148.30385436415673L154.2145982142857,148.7954702295363L154.4333705357143,148.03823777586223L154.67203125,148.6130807876587L155.78578124999999,148.6233907967806L156.06421875,148.71169250383974L156.22332589285713,149.13108423650266L156.50176339285713,148.71587031260134L156.52165178571428,148.52659434378148L157.03875,148.79853698909284L157.3171875,148.87512223720552L157.81439732142857,148.99607098773123L158.39116071428572,148.7454683996737L158.45082589285715,149.07375211939217L158.96792410714286,149.25866433531047L159.32591517857142,148.9224371083081L159.40546875,149.3846929214895L159.90267857142857,149.19673372730614L160.04189732142856,149.32088045328857L160.4197767857143,149.51336824446918L160.936875,149.54070005491377L161.23520089285714,149.12308534160258L161.3943080357143,149.27138172760607L161.41419642857144,149.22490162700416L161.85174107142856,149.90194731876255L161.93129464285713,149.60609107017518L162.20973214285712,149.20915769711138L162.44839285714286,149.55338645651938L162.46828125000002,149.7285755082965L162.6075,149.5024166621268L162.88593749999998,149.57735610678793L163.00526785714285,149.61488253548742L163.18426339285713,149.90463955253364L163.36325892857144,150.00673475414516L163.40303571428572,149.73220339715482L163.42292410714288,149.80753055512906L163.8008035714286,149.9876260265708L163.86046875,149.77106770053507L164.0394642857143,149.70383900329472L164.77533482142857,150.14698740765454L165.09354910714288,149.8567549802363L165.31232142857144,149.89598062187434L165.6703125,150.17622943148018L165.86919642857143,150.30267408415676L165.88908482142855,150.16748478189112L166.00841517857143,150.10053038522602L166.14763392857145,149.7934950694442L166.24707589285714,149.69414155483247L166.2669642857143,149.9250268109143L166.70450892857144,150.2734821729362L166.72439732142857,150.4903187558055L166.80395089285716,149.78472338542343L167.02272321428572,150.32247977256776L167.10227678571428,149.9377903595567L167.69892857142858,150.12899764180185L167.87792410714286,150.10273731797935L167.93758928571427,150.45092563256622L168.0768080357143,150.1895910345018L168.2756919642857,150.2851979725063L168.29558035714285,150.35096878856422L168.33535714285713,150.3374495945871L168.43479910714288,150.3297085158527L168.63368303571428,150.53966978117825L169.1110044642857,150.2564682841301L169.13089285714287,150.49776311516763L169.29,150.55890181213618L169.6678794642857,150.28508390039207L170.00598214285714,150.38114382997156L170.98051339285715,150.82742690965534L171.2390625,150.9237723492086L171.29872767857142,150.9103026084602L171.91526785714285,150.6809022679925L171.93515625,150.90796182230116L172.2732589285714,150.83545679524542L172.47214285714287,150.59787359386684L172.57158482142856,150.74273396953942L172.79035714285715,150.48361289799215L172.9096875,150.6811864592135L173.04890625000002,150.64950540214778L173.40689732142857,150.645795750618L173.5063392857143,150.89610095992686L173.60578125,150.57146820724012L173.96377232142856,150.7953284673393L174.18254464285715,150.92089746817948L174.24220982142856,150.77814445942641L174.63997767857143,150.92979443371297L174.79908482142858,151.0297044619918L174.99796874999998,150.9024652607739L175.2366294642857,151.21226402297617L175.6940625,150.8050925128162L175.79350446428572,151.02628823295237L177.00669642857142,151.23517735227944L177.02658482142857,151.18456493988634L177.10613839285716,151.2446440190077L177.66301339285715,151.24762637838722L178.5182142857143,151.1405047506094L178.67732142857142,151.08815026581289L178.83642857142857,151.15723972320558L178.85631696428572,151.1280069306493L179.5325223214286,151.34898703470827L179.75129464285715,151.55568372756244L179.98995535714286,151.60258978530766L180.0496205357143,151.85655717104675L180.16895089285714,151.45151874348522L180.3280580357143,151.71265750676395L181.52136160714286,151.67400552257897L181.9986830357143,151.77335771843792L182.1379017857143,151.71769646108152L182.59533482142857,151.8505192615092L182.67488839285713,151.57975887805225L182.95332589285712,151.50943308994175L183.29142857142855,151.46033856198193L183.41075892857143,151.48016139417888L183.6693080357143,151.81007641106845L184.06707589285713,151.76291319653393L184.2460714285714,151.63212127536536L184.5642857142857,151.7231765381992L184.78305803571428,151.80209268182517L184.96205357142856,151.7181843996048L185.1211607142857,151.73528400734068L185.51892857142857,151.9295376084745L185.55870535714288,152.10209311097861L185.61837053571426,151.7750635251403L185.65814732142857,151.9516207829118L185.77747767857144,151.96210618615152L186.01613839285713,152.0736410200596L186.17524553571428,152.03598535358907L186.2349107142857,151.8934288389981L186.33435267857143,152.12166406139733L186.47357142857143,151.83468499705197L186.5133482142857,152.22619763687254L187.52765625,152.37211697101594L187.74642857142857,151.87748643681408L187.9055357142857,152.2114236496389L188.22375000000002,152.271734829247L188.30330357142856,152.15464013367892L188.3231919642857,151.80245138257743L188.36296875,152.1377310857177L188.64140625,152.0656117938459L188.72095982142858,152.10493436381222L188.89995535714286,152.26742382645608L188.91984374999998,152.16283816024662L189.0192857142857,152.04095837026836L189.0988392857143,152.35738386511804L189.11872767857142,152.10778748542072L189.41705357142857,152.26883950755L190.03359375,151.93037633523346L190.2722544642857,152.18781401887537L190.4114732142857,152.6262815102935L190.51091517857142,151.915680154413L190.78935267857142,152.34548344016076L190.9683482142857,152.50815555006267L191.26667410714285,152.4596505045891L191.48544642857144,152.50604422688485L191.6246651785714,152.14326655045153L191.64455357142856,152.48754410371185L191.82354910714287,152.26961295604707L192.5793080357143,152.69188682287933L192.6389732142857,152.05683153793217L192.73841517857142,152.5247269973159L192.75830357142857,152.7305585883558L192.83785714285716,152.5187748067081L193.4742857142857,152.61514859944583L194.40904017857142,152.9590938270092L194.48859375,152.42889653071762L194.84658482142856,152.71946787759663L194.9460267857143,152.83632717579604L195.24435267857143,152.66959660425783L195.30401785714284,152.69217760786415L195.36368303571427,152.83587022796274L195.7813392857143,152.6317873030901L196.00011160714286,152.84765526205302L196.27854910714288,152.78027490824462L196.47743303571428,152.52131142765285L196.6166517857143,152.83711776807905L196.95475446428574,152.703011161834L196.99453125,152.54915623292328L197.05419642857143,152.71578196361662L197.47185267857142,152.78673679679633L197.51162946428573,152.90683429241182L197.61107142857145,152.5546310350299L197.82984375,152.90465966910125L197.98895089285713,152.81410619169475L198.06850446428572,152.59854352399708L198.40660714285713,152.82278754115106L198.7645982142857,152.66308328434826L198.88392857142858,152.96295909136535L198.98337053571427,152.8892520211637L199.0828125,152.82751461043955L199.14247767857142,152.69821485802532L199.44080357142857,152.95784826502205L199.4606919642857,152.60744048953057L199.99767857142857,152.8115662738681L200.15678571428572,152.63329397812487L200.35566964285712,152.69077577367426L200.5744419642857,153.18560478016735L200.9920982142857,153.00896246284248L201.3500892857143,152.96904777288438L201.98651785714284,153.09356968402864L202.00640625,152.9395532079041L202.12573660714287,152.86815131753684L203.1599330357143,153.11286765262486L203.19970982142857,152.9778511069715L203.39859375,152.9840914450586L203.5378125,153.0855998016894L204.07479910714284,153.14878520295025L204.49245535714286,152.9561417989433L204.69133928571426,153.1119287006557L205.00955357142857,153.19848767593504L205.04933035714285,152.83835739567877L205.08910714285713,152.9758934184909L205.18854910714285,153.15006505250932L205.82497767857143,153.03767236992718L205.92441964285715,153.11306744366885L206.1431919642857,153.0800287306309L206.16308035714286,153.52953813895584L206.24263392857145,153.16376359686257L207.09783482142856,153.2519736506045L207.1575,153.22472755908967L207.55526785714287,153.52962253913284L207.6745982142857,153.46668901965023L207.69448660714284,152.99770888611675L208.21158482142857,153.48776796385647L208.35080357142857,153.28945194482804L208.49002232142857,153.59552193358542L209.58388392857142,153.44121269434692L209.60377232142858,153.42847024574877L209.78276785714286,153.32838416397573L209.92198660714286,153.40449861735107L209.9816517857143,153.17238032743336L210.1208705357143,153.38863270282746L210.18053571428572,153.42809176370503L210.55841517857144,153.61235713139178L210.61808035714287,153.2916193149984L210.83685267857143,153.5009568102658L211.055625,153.66221719533206L211.25450892857143,153.4477181017399L211.29428571428573,153.29402999505402L211.31417410714286,153.3619220249355L211.37383928571427,153.48905440717937L211.85116071428573,153.42234266102315L211.95060267857144,153.4815038882196L211.97049107142857,153.61656527146698L212.05004464285713,153.4440433971584L212.42792410714284,153.59540456458927L212.6268080357143,153.5524712495506L212.78591517857143,153.6869207315147L213.02457589285717,153.1954024538398L213.82011160714285,153.72148919776083L213.99910714285716,153.49766520336271L214.0189955357143,153.70887203067542L214.13832589285713,153.59765831306578L214.17810267857143,153.7580331556499L214.35709821428574,153.61855131313206L215.0531919642857,153.81171595416964L215.61006696428572,153.70147910267116L215.66973214285716,153.54997353181244L215.90839285714287,153.67132450193168L216.46526785714286,153.62913496345283L216.9425892857143,153.73256540223957L217.1414732142857,153.69736327528955L218.23533482142858,153.70818364173175L218.43421874999999,153.61223448738457L218.49388392857142,153.5610642425716L218.71265624999998,153.77581323981286L219.07064732142857,153.64937320277096L219.17008928571428,153.7086728990078L219.7866294642857,153.70427156165243L219.88607142857143,153.5611835896969L219.90595982142858,153.47690539732577L219.94573660714286,153.77615281865002L220.18439732142858,153.708542342484L220.22417410714286,153.82862632088364L220.46283482142857,153.76046295762063L220.66171875,153.763727530092L220.92026785714287,153.89101090952755L221.0197098214286,153.69496578276159L221.0395982142857,154.0429032046348L221.33792410714287,154.01877101808788L221.4572544642857,153.80801157765092L221.65613839285714,153.89751961380244L222.13345982142857,154.0617943380028L222.4715625,153.93982124626638L222.90910714285715,154.12163933850826L223.52564732142858,153.89054209291936L223.66486607142858,153.9555173713714L223.72453124999998,153.84134470224382L223.88363839285714,153.98855674378575L224.2018526785714,153.8334588903934L224.28140625,154.02546138055624L224.38084821428572,153.90188435576857L224.420625,153.96792815364898L224.46040178571428,153.86455475091935L224.52006696428572,154.01784591302277L225.2161607142857,154.1170721679926L225.35537946428573,154.05923958420755L225.67359375,154.21137551888825L226.07136160714285,153.9745736785233L226.62823660714287,154.12113920152188L226.66801339285715,154.1792652077973L226.6879017857143,154.0438827082515L226.72767857142858,154.07074339427055L226.84700892857143,153.78233447223903L226.9265625,153.92859140709044L227.02600446428573,154.1323311265558L227.14533482142858,153.98885873816909L227.2447767857143,153.98958273343743L227.40388392857145,154.10212575383486L227.8215401785714,154.19504837058486L228.0999776785714,154.00693356357516L228.31875,154.19402271062137L228.51763392857143,154.41687544360758L228.5971875,154.12131987065078L228.61707589285714,154.23004015646876L229.17395089285714,154.34312881082298L229.35294642857144,154.0460289783776L229.51205357142857,154.36444546021522L229.81037946428572,154.05475054979325L229.83026785714284,154.20165400318803L230.0689285714286,154.23377717211844L230.68546875,154.0878021206707L230.8644642857143,154.15556689091028L231.12301339285713,154.18136103563012L231.18267857142857,154.14756502881647L231.20256696428572,154.4806879118085L231.30200892857144,154.26770604327322L231.48100446428572,154.0913498952985L231.64011160714287,154.25903689228L231.77933035714284,154.15990657657386L231.79921875,154.4764177903533L232.13732142857143,154.13170241117479L232.73397321428573,154.319275540486L232.93285714285713,154.44614285342396L233.66872767857143,154.44369788579644L233.8477232142857,154.17265001423658L233.86761160714286,154.4171823833138L233.9869419642857,154.37152848131956L234.30515625,154.51582344174386L234.44437499999998,154.04476627260448L235.00125,154.42236804887654L235.02113839285715,154.31459528692068L235.20013392857143,154.06044558361174L235.29957589285715,154.4482264827937L235.5183482142857,154.29732424132527L235.69734375000002,154.42792032770814L235.97578125,154.4050518359989L236.19455357142857,154.63511781692506L236.73154017857144,154.42975438311697L236.79120535714284,154.48399930000306L236.97020089285715,154.28533842712642L237.4674107142857,154.4632131189108L237.54696428571427,154.50946474559606L237.72595982142857,154.38623059652747L238.00439732142857,154.50558365620674L238.1237276785714,154.58131171502174L238.1635044642857,154.21483493708075L238.83970982142856,154.66052457802L238.95904017857143,154.62819832116367L239.0783705357143,154.5284050025046L239.11814732142855,154.3460267700255L239.1380357142857,154.49307759404184L239.33691964285714,154.3892241653055L239.43636160714283,154.3788027215749L239.71479910714285,154.51742605604232L239.89379464285713,154.6636651877314L240.21200892857144,154.4417754739523L240.70921875000002,154.73507070466877L241.08709821428573,154.7017596691847L241.26609375,154.72609527334572L241.62408482142857,154.5845921125263L241.98207589285715,154.85624825879933L242.1610714285714,154.8559578035027L242.6185044642857,154.70132645890118L242.65828125000002,154.6406107518822L242.67816964285714,154.74226285256447L243.69247767857144,154.3791099909693L243.85158482142856,154.61034702435137L243.91125,154.7670741967857L244.0902455357143,154.7347245320678L244.42834821428573,154.79134485237302L244.8460044642857,154.5868422344327L245.14433035714285,154.39035532549025L245.46254464285715,154.5207328286022L245.8603125,154.78071471601726L245.99953125,154.61486012600363L246.13875000000002,154.71244090721012L246.2381919642857,154.65345309600235L246.85473214285713,154.8314138364047L247.01383928571428,154.63414985239507L247.05361607142856,154.63413435705007L247.72982142857143,154.8421339776367L247.78948660714286,154.8163266453892L248.06792410714286,154.79966453388334L248.10770089285717,154.82043357118965L248.1275892857143,154.6079801928252L248.34636160714285,154.81324142329396L248.46569196428572,154.61776270084084L249.02256696428572,154.75165105350317L249.08223214285715,154.8489037949592L249.1021205357143,154.79526088871063L249.22145089285712,154.60165017955006L249.26122767857143,154.8685485955328L249.59933035714286,154.59958204552532L249.7584375,155.11536405533553L249.9374330357143,154.69911227300764L250.2357589285714,154.7798107109964L250.55397321428572,154.70738645754756L251.3296205357143,154.79499516002835L251.56828124999998,154.846922698617L251.6080580357143,154.6662529103458L251.80694196428573,154.8973580684513L252.0257142857143,154.7561694301665L252.1649330357143,154.80818433612586L252.30415178571428,154.82874039486052L252.34392857142856,154.95681964159013L252.68203125,154.80136902183295L253.0599107142857,155.0217514012009L253.77589285714288,154.90670110210777L253.97477678571428,154.91981906555594L254.31287946428571,155.11565978564323L254.4322098214286,154.90598534904422L254.61120535714286,154.99915160536767L255.20785714285714,155.0289128880948L255.66529017857144,155.04989259615542L255.68517857142857,154.99163471460344L256.04316964285715,155.15759282670916L256.60004464285714,154.78524924740196L256.69948660714283,154.93278537243606L256.9580357142857,155.09421521723272L256.9779241071429,154.92108671665193L257.2364732142857,154.96871479153634L257.3955803571428,155.0541782129556L257.49502232142856,155.18591502048076L257.5347991071429,155.0930636163801L257.5546875,155.08603960946203L257.95245535714287,154.75622613653542L258.05189732142856,155.26211651153864L258.2905580357143,154.9889292933047L258.3303348214286,155.10522383563222L258.52921875,155.12462235912682L258.62866071428573,155.08402950055898L258.7678794642857,155.1061532266438L259.06620535714285,154.91804995872081L259.1457589285714,154.95894613042475L259.38441964285715,154.9883262936026L259.7821875,155.10183266289533L260.08051339285714,155.24052753970028L260.25950892857145,155.23497163429857L260.35895089285714,155.12235937938095L261.2141517857143,155.16824406310917L261.31359375,155.1672019187361L261.4925892857143,155.0071214877069L261.6119196428572,155.26069225855173L261.83069196428573,155.14158547595144L261.9102455357143,155.05721398182214L262.2284598214286,155.02963193804027L262.4870089285714,155.198423390463L262.8847767857143,155.04748092703522L263.0637723214286,155.0235142439604L263.2228794642857,155.37536935061217L263.6206473214286,154.94824774861337L263.9388616071429,155.16628340743483L264.2769642857143,155.25583759993316" style="fill: none;" fill="none"></path></g></g></g></g></g></g><g transform="translate(51, 177)" clip-path="url(#clip_1)"><clipPath id="clip_1"><rect width="278" height="23"></rect></clipPath><g><g><line x1="0" y1="0" x2="0" y2="5" style="visibility: inherit;" fill="rgb(0, 0, 0)" stroke="rgb(204, 204, 204)" stroke-width="1px"></line><line x1="19.888392857142858" y1="0" x2="19.888392857142858" y2="5" style="visibility: inherit;" fill="rgb(0, 0, 0)" stroke="rgb(204, 204, 204)" stroke-width="1px"></line><line x1="39.776785714285715" y1="0" x2="39.776785714285715" y2="5" style="visibility: inherit;" fill="rgb(0, 0, 0)" stroke="rgb(204, 204, 204)" stroke-width="1px"></line><line x1="59.66517857142857" y1="0" x2="59.66517857142857" y2="5" style="visibility: inherit;" fill="rgb(0, 0, 0)" stroke="rgb(204, 204, 204)" stroke-width="1px"></line><line x1="79.55357142857143" y1="0" x2="79.55357142857143" y2="5" style="visibility: inherit;" fill="rgb(0, 0, 0)" stroke="rgb(204, 204, 204)" stroke-width="1px"></line><line x1="99.44196428571429" y1="0" x2="99.44196428571429" y2="5" style="visibility: inherit;" fill="rgb(0, 0, 0)" stroke="rgb(204, 204, 204)" stroke-width="1px"></line><line x1="119.33035714285714" y1="0" x2="119.33035714285714" y2="5" style="visibility: inherit;" fill="rgb(0, 0, 0)" stroke="rgb(204, 204, 204)" stroke-width="1px"></line><line x1="139.21875" y1="0" x2="139.21875" y2="5" style="visibility: inherit;" fill="rgb(0, 0, 0)" stroke="rgb(204, 204, 204)" stroke-width="1px"></line><line x1="159.10714285714286" y1="0" x2="159.10714285714286" y2="5" style="visibility: inherit;" fill="rgb(0, 0, 0)" stroke="rgb(204, 204, 204)" stroke-width="1px"></line><line x1="178.99553571428572" y1="0" x2="178.99553571428572" y2="5" style="visibility: inherit;" fill="rgb(0, 0, 0)" stroke="rgb(204, 204, 204)" stroke-width="1px"></line><line x1="198.88392857142858" y1="0" x2="198.88392857142858" y2="5" style="visibility: inherit;" fill="rgb(0, 0, 0)" stroke="rgb(204, 204, 204)" stroke-width="1px"></line><line x1="218.77232142857142" y1="0" x2="218.77232142857142" y2="5" style="visibility: inherit;" fill="rgb(0, 0, 0)" stroke="rgb(204, 204, 204)" stroke-width="1px"></line><line x1="238.66071428571428" y1="0" x2="238.66071428571428" y2="5" style="visibility: inherit;" fill="rgb(0, 0, 0)" stroke="rgb(204, 204, 204)" stroke-width="1px"></line><line x1="258.54910714285717" y1="0" x2="258.54910714285717" y2="5" style="visibility: inherit;" fill="rgb(0, 0, 0)" stroke="rgb(204, 204, 204)" stroke-width="1px"></line><line x1="278.4375" y1="0" x2="278.4375" y2="5" style="visibility: inherit;" fill="rgb(0, 0, 0)" stroke="rgb(204, 204, 204)" stroke-width="1px"></line></g><g transform="translate(0, 8)"><text x="0" y="0" dx="0em" dy="0.95em" style="text-anchor: middle; visibility: hidden; font-family: Roboto, sans-serif; font-size: 12px; font-weight: 200;" fill="rgb(33, 33, 33)" stroke="none" stroke-width="1px">-100k</text><text x="19.888392857142858" y="0" dx="0em" dy="0.95em" style="text-anchor: middle; visibility: inherit; font-family: Roboto, sans-serif; font-size: 12px; font-weight: 200;" fill="rgb(33, 33, 33)" stroke="none" stroke-width="1px">0</text><text x="39.776785714285715" y="0" dx="0em" dy="0.95em" style="text-anchor: middle; visibility: hidden; font-family: Roboto, sans-serif; font-size: 12px; font-weight: 200;" fill="rgb(33, 33, 33)" stroke="none" stroke-width="1px">100k</text><text x="59.66517857142857" y="0" dx="0em" dy="0.95em" style="text-anchor: middle; visibility: inherit; font-family: Roboto, sans-serif; font-size: 12px; font-weight: 200;" fill="rgb(33, 33, 33)" stroke="none" stroke-width="1px">200k</text><text x="79.55357142857143" y="0" dx="0em" dy="0.95em" style="text-anchor: middle; visibility: hidden; font-family: Roboto, sans-serif; font-size: 12px; font-weight: 200;" fill="rgb(33, 33, 33)" stroke="none" stroke-width="1px">300k</text><text x="99.44196428571429" y="0" dx="0em" dy="0.95em" style="text-anchor: middle; visibility: inherit; font-family: Roboto, sans-serif; font-size: 12px; font-weight: 200;" fill="rgb(33, 33, 33)" stroke="none" stroke-width="1px">400k</text><text x="119.33035714285714" y="0" dx="0em" dy="0.95em" style="text-anchor: middle; visibility: hidden; font-family: Roboto, sans-serif; font-size: 12px; font-weight: 200;" fill="rgb(33, 33, 33)" stroke="none" stroke-width="1px">500k</text><text x="139.21875" y="0" dx="0em" dy="0.95em" style="text-anchor: middle; visibility: inherit; font-family: Roboto, sans-serif; font-size: 12px; font-weight: 200;" fill="rgb(33, 33, 33)" stroke="none" stroke-width="1px">600k</text><text x="159.10714285714286" y="0" dx="0em" dy="0.95em" style="text-anchor: middle; visibility: hidden; font-family: Roboto, sans-serif; font-size: 12px; font-weight: 200;" fill="rgb(33, 33, 33)" stroke="none" stroke-width="1px">700k</text><text x="178.99553571428572" y="0" dx="0em" dy="0.95em" style="text-anchor: middle; visibility: inherit; font-family: Roboto, sans-serif; font-size: 12px; font-weight: 200;" fill="rgb(33, 33, 33)" stroke="none" stroke-width="1px">800k</text><text x="198.88392857142858" y="0" dx="0em" dy="0.95em" style="text-anchor: middle; visibility: hidden; font-family: Roboto, sans-serif; font-size: 12px; font-weight: 200;" fill="rgb(33, 33, 33)" stroke="none" stroke-width="1px">900k</text><text x="218.77232142857142" y="0" dx="0em" dy="0.95em" style="text-anchor: middle; visibility: inherit; font-family: Roboto, sans-serif; font-size: 12px; font-weight: 200;" fill="rgb(33, 33, 33)" stroke="none" stroke-width="1px">1M</text><text x="238.66071428571428" y="0" dx="0em" dy="0.95em" style="text-anchor: middle; visibility: hidden; font-family: Roboto, sans-serif; font-size: 12px; font-weight: 200;" fill="rgb(33, 33, 33)" stroke="none" stroke-width="1px">1.1M</text><text x="258.54910714285717" y="0" dx="0em" dy="0.95em" style="text-anchor: middle; visibility: inherit; font-family: Roboto, sans-serif; font-size: 12px; font-weight: 200;" fill="rgb(33, 33, 33)" stroke="none" stroke-width="1px">1.2M</text><text x="278.4375" y="0" dx="0em" dy="0.95em" style="text-anchor: middle; visibility: hidden; font-family: Roboto, sans-serif; font-size: 12px; font-weight: 200;" fill="rgb(33, 33, 33)" stroke="none" stroke-width="1px">1.3M</text></g><line x1="0" y1="0" x2="278.4375" y2="0" fill="rgb(0, 0, 0)" stroke="rgb(204, 204, 204)" stroke-width="1px"></line></g></g></g></g></svg>